<svg width="100" height="67" viewBox="0 0 100 67" fill="none" xmlns="http://www.w3.org/2000/svg">
<path d="M29.1843 62.5042C29.0844 62.4417 28.8971 62.4043 28.6225 62.4043C27.8486 62.4043 27.4616 62.7788 27.4616 63.5402V63.7399H26.9998V64.0021H27.4616V66.8607H28.0608V64.0021H28.997V63.7399H28.0608V63.5402C28.0608 62.966 28.2356 62.6789 28.5976 62.6789C28.8847 62.6789 29.0969 62.7788 29.2342 62.9785L29.4339 62.8162C29.359 62.6789 29.2716 62.5791 29.1967 62.5166L29.1843 62.5042Z" fill="#2D2929"/>
<path d="M39.7202 64.4639C39.6078 64.2143 39.4331 64.0146 39.2209 63.8772C38.9962 63.7275 38.734 63.665 38.4344 63.665C38.1348 63.665 37.8727 63.7399 37.648 63.8772C37.4233 64.027 37.261 64.2143 37.1362 64.4639C37.0239 64.7136 36.9614 64.9882 36.9614 65.2878C36.9614 65.5874 37.0239 65.862 37.1362 66.1117C37.2485 66.3613 37.4233 66.5611 37.648 66.6984C37.8727 66.8482 38.1348 66.9106 38.4344 66.9106C38.734 66.9106 38.9962 66.8357 39.2209 66.6984C39.4455 66.5486 39.6078 66.3613 39.7202 66.1117C39.8325 65.862 39.8949 65.5874 39.8949 65.2878C39.8949 64.9882 39.8325 64.7136 39.7202 64.4639ZM39.1584 65.9868C39.096 66.1991 38.9962 66.3613 38.8713 66.4737C38.7465 66.5985 38.5967 66.6484 38.4344 66.6484C38.2722 66.6484 38.1223 66.586 37.9975 66.4737C37.8727 66.3488 37.7728 66.1866 37.7104 65.9868C37.6355 65.7746 37.6106 65.5499 37.6106 65.3003C37.6106 65.0506 37.648 64.8135 37.7104 64.6137C37.7728 64.4015 37.8727 64.2392 37.9975 64.1269C38.1223 64.0021 38.2722 63.9521 38.4344 63.9521C38.5967 63.9521 38.7465 64.0146 38.8713 64.1269C38.9962 64.2517 39.096 64.414 39.1584 64.6137C39.2333 64.8259 39.2583 65.0506 39.2583 65.3003C39.2583 65.5499 39.2208 65.7871 39.1584 65.9868Z" fill="#2D2929"/>
<path d="M50.8782 64.4639C50.7658 64.2143 50.5911 64.0146 50.3789 63.8772C50.1542 63.7275 49.8921 63.665 49.5925 63.665C49.2929 63.665 49.0307 63.7399 48.806 63.8772C48.5814 64.027 48.4191 64.2143 48.3067 64.4639C48.1944 64.7136 48.132 64.9882 48.132 65.2878C48.132 65.5874 48.1944 65.862 48.3067 66.1117C48.4191 66.3613 48.5938 66.5611 48.806 66.6984C49.0307 66.8482 49.2929 66.9106 49.5925 66.9106C49.8921 66.9106 50.1542 66.8357 50.3789 66.6984C50.6035 66.5486 50.7658 66.3613 50.8782 66.1117C50.9905 65.862 51.0529 65.5874 51.0529 65.2878C51.0529 64.9882 50.9905 64.7136 50.8782 64.4639ZM50.3165 65.9868C50.2416 66.1991 50.1542 66.3613 50.0293 66.4737C49.9045 66.5985 49.7547 66.6484 49.5925 66.6484C49.4302 66.6484 49.2804 66.586 49.1556 66.4737C49.0307 66.3488 48.9309 66.1866 48.8684 65.9868C48.806 65.7746 48.7686 65.5499 48.7686 65.3003C48.7686 65.0506 48.806 64.8135 48.8684 64.6137C48.9309 64.4015 49.0307 64.2392 49.1556 64.1269C49.2804 64.0021 49.4302 63.9521 49.5925 63.9521C49.7547 63.9521 49.9045 64.0146 50.0293 64.1269C50.1542 64.2517 50.254 64.414 50.3165 64.6137C50.3789 64.8259 50.4163 65.0506 50.4163 65.3003C50.4163 65.5499 50.3789 65.7871 50.3165 65.9868Z" fill="#2D2929"/>
<path d="M61.9513 62.7656C61.9138 62.6533 61.8514 62.5784 61.7765 62.5409C61.6891 62.5035 61.5768 62.4785 61.402 62.4785H60.8028V62.6158H60.9402C61.1274 62.6158 61.2522 62.6657 61.3146 62.7781C61.3771 62.8904 61.402 63.0527 61.402 63.2774V63.8766C61.2772 63.8142 61.1399 63.7642 61.0151 63.7268C60.8902 63.6893 60.7404 63.6769 60.5657 63.6769C60.1537 63.6769 59.8417 63.8267 59.6295 64.1387C59.4173 64.4508 59.3049 64.8378 59.3049 65.3121C59.3049 65.7865 59.4048 66.1734 59.617 66.4855C59.8292 66.7851 60.1163 66.9474 60.5033 66.9474C60.7404 66.9474 60.9277 66.9099 61.0525 66.8475C61.1773 66.7851 61.3022 66.6977 61.3895 66.5854H61.427L61.6642 66.885H62.0012V63.2899C62.0012 63.0652 61.9887 62.8904 61.9513 62.7781V62.7656ZM61.4145 66.2608C61.3147 66.3981 61.2273 66.498 61.1274 66.5604C61.04 66.6228 60.9027 66.6602 60.7155 66.6602C60.4658 66.6602 60.2786 66.5354 60.1413 66.2858C60.0164 66.0361 59.954 65.7116 59.954 65.2996C59.954 64.8877 60.0164 64.5507 60.1538 64.3135C60.2911 64.0638 60.5033 63.939 60.7779 63.939C60.8653 63.939 60.9652 63.9515 61.065 63.9889C61.1649 64.0264 61.2772 64.0763 61.4145 64.1387V66.2608Z" fill="#2D2929"/>
<path d="M73.0233 63.7275H71.0011C70.6266 63.7275 70.4393 63.9023 70.4393 64.2643V64.6013H70.5767C70.5767 64.4141 70.6515 64.2643 70.7888 64.1644C70.9262 64.0646 71.1384 64.0022 71.413 64.0022H72.1745L70.4518 66.7359V66.8607H73.0482V66.5986H71.2507L73.0482 63.74L73.0233 63.7275Z" fill="#2D2929"/>
<path d="M18.7991 60.6318C18.3248 60.17 17.813 59.2962 17.2637 58.0354L10.0986 40.6094H9.12494L0 62.1173H1.46051L4.06941 55.9258H13.1944L14.0057 58.0479C14.6174 59.7206 15.4288 60.844 16.4524 61.4182C17.4759 61.9925 18.4995 62.2796 19.5481 62.2796C20.0225 62.2796 20.4594 62.2296 20.8463 62.1173V61.4682C19.9601 61.3808 19.2735 61.1062 18.7991 60.6318ZM4.55622 54.6276L8.62564 45.1781L12.5328 54.6276H4.55622Z" fill="#FF7D23"/>
<path d="M33.9655 47.7865C32.9294 46.9127 31.6063 46.4883 29.971 46.4883C29.0598 46.4883 28.2359 46.6505 27.5119 46.9626C26.7879 47.2747 26.1887 47.6617 25.7393 48.1235H25.5771C25.3773 47.6866 25.0778 47.3621 24.6533 47.1499C24.2289 46.9377 23.6173 46.8253 22.8184 46.8253H19.8849V47.4744H20.534C21.4453 47.4744 22.0569 47.7366 22.3565 48.2733C22.6561 48.8101 22.8184 49.6215 22.8184 50.7324V62.1293H25.7518V49.6839C26.7754 48.5355 27.8614 47.9612 29.0098 47.9612C30.0334 47.9612 30.8823 48.3108 31.5688 49.0223C32.2554 49.7338 32.5924 50.8448 32.5924 52.3677V62.1417H35.5259V52.3677C35.5259 50.1957 35.0141 48.6728 33.978 47.8115L33.9655 47.7865Z" fill="#FF7D23"/>
<path d="M49.7187 60.5065C49.0072 60.9309 48.096 61.1431 46.985 61.1431C45.4247 61.1431 44.2388 60.519 43.4524 59.2832C42.6535 58.0474 42.2665 56.4371 42.2665 54.4648C42.2665 52.4925 42.666 50.8822 43.4524 49.6464C44.2388 48.4106 45.4247 47.7865 46.985 47.7865C48.1959 47.7865 49.1945 48.1235 49.9435 48.8101C50.7049 49.4966 51.1293 50.5077 51.2167 51.8559H51.8658C51.8658 50.4703 51.8159 49.5091 51.741 48.9724C51.6536 48.4356 51.4289 47.9862 51.0544 47.6242C50.293 46.8628 48.7201 46.4883 46.3359 46.4883C44.7756 46.4883 43.4524 46.8378 42.3789 47.5493C41.3053 48.2608 40.4939 49.2095 39.9697 50.4204C39.4329 51.6312 39.1708 52.9793 39.1708 54.4773C39.1708 55.9752 39.4329 57.3234 39.9697 58.5342C40.5064 59.745 41.3053 60.6937 42.3789 61.4053C43.4524 62.1168 44.7756 62.4663 46.3359 62.4663C47.6841 62.4663 48.845 62.2041 49.8186 61.6674C50.7923 61.1306 51.6411 60.2568 52.3651 59.046L51.716 58.5592C51.1043 59.4455 50.4428 60.107 49.7312 60.5315L49.7187 60.5065Z" fill="#FF7D23"/>
<path d="M66.9325 47.7864C65.8964 46.9126 64.5732 46.4882 62.938 46.4882C62.0267 46.4882 61.2029 46.6505 60.4789 46.9626C59.7549 47.2746 59.1557 47.6616 58.7063 48.1235V44.5409C58.7063 43.4299 58.6189 42.6061 58.4442 42.0693C58.2694 41.5325 57.9823 41.1581 57.5829 40.9459C57.1834 40.7337 56.5717 40.6338 55.7728 40.6338H52.8394V41.2829H53.4885C54.3997 41.2829 55.0114 41.545 55.311 42.0818C55.6106 42.6186 55.7728 43.4299 55.7728 44.5409V62.1292H58.7063V49.6838C59.7299 48.5354 60.8159 47.9612 61.9643 47.9612C62.9879 47.9612 63.8367 48.3107 64.5233 49.0222C65.2099 49.7338 65.5469 50.8447 65.5469 52.3676V62.1417H68.4803V52.3676C68.4803 50.1956 67.9686 48.6727 66.9325 47.8114V47.7864Z" fill="#FF7D23"/>
<path d="M98.8767 46.9634C98.4398 46.6388 97.7906 46.4766 96.9168 46.4766C96.043 46.4766 95.2441 46.6513 94.5826 47.0008C93.921 47.3504 93.3967 47.7748 92.9972 48.2741H92.8349C92.6602 47.7498 92.3606 47.3753 91.9362 47.1506C91.5118 46.926 90.8876 46.8136 90.0638 46.8136H87.4548V47.4627H87.7794C88.6906 47.4627 89.3023 47.7249 89.6019 48.2616C89.9015 48.7984 90.0638 49.6098 90.0638 50.7207V62.1175H92.9972V50.0591C93.3218 49.5598 93.7586 49.1604 94.2954 48.8733C94.8322 48.5862 95.4313 48.4364 96.0929 48.4364C96.6796 48.4364 97.2039 48.5238 97.6533 48.686C98.1151 48.8483 98.4522 49.098 98.7019 49.4225L100 48.4489C99.6131 47.7498 99.2262 47.263 98.8642 46.9884L98.8767 46.9634Z" fill="#FF7D23"/>
<path d="M82.7863 46.9494C76.5948 44.3779 69.5296 48.7594 70.7279 55.7623C71.3895 59.6444 75.2217 62.2783 79.0789 62.1035C82.7364 61.9288 85.183 58.109 83.5228 54.7886C83.4229 54.5889 82.5242 53.2033 82.262 53.4654C82.262 54.0147 82.7738 54.4016 82.986 54.9134C84.6088 58.7831 81.0637 62.0411 77.1691 60.8553C72.7252 59.4946 71.4894 53.6901 73.7987 50.0077C76.3826 45.8884 82.8862 46.3752 84.8834 50.8066C86.2815 53.9023 85.6324 58.4211 83.0984 60.7679C83.0235 60.8428 82.1996 61.392 82.3245 61.5044C84.122 61.2048 85.6199 59.6694 86.4937 58.134C88.9154 53.9148 87.2552 48.8218 82.7738 46.9494H82.7863Z" fill="#FF7D23"/>
<path d="M32.7913 19.6368C33.378 19.4745 33.8898 20.2235 34.2518 20.5855C34.5014 19.5993 33.7025 19.7616 33.3281 19.3497C33.3031 19.3122 33.0409 18.8504 33.0409 18.8129V17.3899C33.7275 17.5771 33.9522 17.989 34.2268 18.5757C34.2767 18.7006 34.1769 18.8129 34.4265 18.763V17.7893C34.3516 17.6146 33.6027 17.5397 33.4279 16.7033C33.378 16.4537 33.2656 15.2179 33.5902 15.2428C34.2393 15.5799 34.439 16.0667 34.6013 16.7408C34.6263 16.8781 34.5389 16.8905 34.776 16.8656C34.7261 16.566 34.9383 16.2789 34.851 15.9793C34.801 15.8046 34.439 15.5799 34.3142 15.3926C33.8523 14.6936 34.1644 14.0445 34.3516 13.333C35.2004 13.4952 35.0507 14.4814 35.1256 15.1055C35.1381 15.2303 35.188 15.3676 35.3003 15.2303C35.2504 14.8683 35.5874 14.3815 35.5624 14.0694C35.55 13.9196 35.2379 13.6325 35.1505 13.4453C34.7136 12.5965 35.2005 12.1346 35.4751 11.3482C35.7248 11.1609 36.0368 12.1221 36.0493 12.2719C36.1117 12.7338 35.9869 13.0583 35.9869 13.4952C36.0742 13.6201 36.5112 12.6339 36.5112 12.4217C36.5112 12.1221 36.1991 11.7851 36.1616 11.3856C36.1117 10.7989 36.4487 9.92514 37.023 9.71293C37.2976 10.2871 37.2227 10.8239 37.1977 11.4356C38.0465 10.8364 37.5223 10.6117 37.4599 10C37.3974 9.30099 37.9716 8.52707 38.5708 8.23997C38.7456 8.78921 38.6083 9.32597 38.6083 9.87521C39.2823 9.41335 38.9578 9.11375 38.9952 8.53954C39.0452 7.77809 39.6194 7.36616 40.2061 6.97919L40.3808 7.07905C40.3059 7.42857 40.281 7.79057 40.2435 8.15258C40.2435 8.22747 40.1437 8.41471 40.3309 8.32734C40.8427 8.10264 40.6305 7.71569 40.6679 7.44107C40.7678 6.60472 41.4169 6.06794 42.1908 5.83077L42.1534 6.77948C42.8649 5.90568 43.539 5.73091 44.6499 5.83077C44.7623 5.83077 45.2866 5.8807 45.2117 6.04298C45.0869 6.3176 44.2755 6.99168 43.9759 7.14147C43.2893 7.49099 42.9024 7.29127 42.2533 7.40362C42.0785 7.44107 41.1673 7.85299 41.6291 7.90292C42.3282 7.9903 43.0022 7.97782 43.3143 8.76424C42.8275 8.80169 42.1159 8.97644 41.6416 8.85161C41.2921 8.75175 41.1048 8.23996 40.7928 8.35231C40.6929 8.38975 39.8815 9.13871 39.9564 9.20113C40.6804 8.91402 41.2172 9.03886 41.7914 9.53817C42.0286 9.7379 41.2422 10.0125 41.0924 10.0375C40.5556 10.1249 39.6818 10.0624 39.4321 9.55065H39.3073L38.5708 10.412H39.8191C39.9065 10.412 40.3808 10.7989 40.2934 10.9238C39.5944 11.3482 38.7456 11.7601 38.084 11.0985H37.8593C37.7719 11.2858 36.973 12.0223 37.4973 11.9474C38.109 11.86 38.5334 11.6228 39.1825 11.9474C39.1076 12.4467 38.2962 12.8586 37.8343 12.8836C37.4474 12.9085 37.1353 12.6963 36.7733 12.6339C36.7358 13.0084 36.2989 13.1832 36.3364 13.5826C36.9855 13.1083 39.1325 13.1707 37.7095 14.1319C37.0854 14.5563 36.5237 14.4065 35.8246 14.3565L35.5624 15.2054C36.1367 14.9557 36.8607 14.6811 37.4599 14.9932C37.2227 15.48 36.7733 15.9793 36.2116 16.0667C35.9619 16.1041 35.4127 15.9918 35.2629 16.1541L35.0506 17.0154C35.6623 16.7408 36.1117 16.5036 36.8232 16.591C36.9356 16.6034 36.973 16.541 36.9356 16.7033C36.636 17.6895 35.8745 17.9266 34.9259 17.9516L34.7136 18.9003C34.9383 18.8753 35.0631 18.6756 35.2878 18.5632C35.6623 18.3885 36.1491 18.2387 36.5736 18.2886C36.6734 18.3011 36.7483 18.2512 36.6984 18.4135C36.4113 19.3622 35.6249 19.8739 34.6387 19.8365V21.0848C34.6387 21.0848 34.7636 21.2596 34.8135 21.1722C35.213 20.5231 35.862 20.0612 36.6235 20.0113C36.6235 21.1722 35.9245 21.8337 34.8135 21.9586C34.7386 22.2207 34.9758 23.6937 35.2005 23.7187C35.3128 23.7187 35.5999 23.4565 35.5 23.2942L35.163 23.3442C35.525 22.5078 35.9744 21.9711 36.8856 21.7464C37.0479 22.9322 36.2615 23.6438 35.2504 24.0432C35.2504 24.7298 35.6124 25.3289 35.7747 25.9656C35.9744 26.0155 35.912 25.9281 35.9619 25.8532C36.0992 25.666 36.1741 25.3914 36.3739 25.2291C36.1367 24.9295 36.1866 25.5037 35.8621 25.3539C36.2365 24.5675 36.5112 23.7311 37.4973 23.5439C37.7095 24.8546 37.0604 25.5287 35.9619 26.0529C35.8496 26.2402 36.4612 27.3387 36.5985 27.5883C36.6485 27.6882 36.5985 27.8005 36.7733 27.7631C36.9855 27.6632 36.8732 27.2388 36.9106 27.0391C37.0604 26.2152 37.3475 25.6285 38.1963 25.3539C38.4335 26.2027 38.2338 26.8893 37.5972 27.4635C37.3974 27.6507 36.8732 27.8255 36.9356 28.1126C36.973 28.2374 37.6096 29.286 37.722 29.3983C37.7969 29.4732 37.7969 29.5232 37.9342 29.4857L38.1963 29.0988C38.2338 28.8116 37.9592 29.1362 37.9342 29.0114C37.8094 28.2749 38.2962 27.0516 39.145 26.9892C39.4696 28.1875 39.0327 28.9989 38.059 29.6605L38.0216 29.7853C38.2463 29.9226 39.0202 31.0835 39.1825 31.0461C39.2824 30.8588 39.6319 30.6092 39.532 30.4469L39.2324 30.709C38.9952 29.9101 39.3323 28.7742 40.0937 28.4247C40.5306 29.1861 40.4682 30.0724 39.919 30.759C39.7193 31.0086 39.4072 31.0211 39.4946 31.3457C39.5195 31.4206 40.6055 32.3693 40.6929 32.3193L40.955 31.845C40.955 31.845 40.6679 32.1945 40.5431 31.7826C40.3933 31.2833 40.5681 30.2097 40.955 29.8228C41.367 29.3983 41.7414 30.709 41.729 31.0211C41.7165 31.7576 41.005 32.2444 40.955 32.5066C40.9301 32.6564 42.1784 33.4428 42.2408 33.3928C41.9786 32.9559 41.8164 32.5066 41.9037 31.9823C41.9037 31.9199 42.2907 30.9961 42.3157 30.9462C42.5653 30.5967 43.0521 31.8325 43.0896 32.0572C43.2019 32.8062 42.7401 33.2056 42.7526 33.5177C42.7526 33.7299 43.4391 33.9795 43.6139 34.1543C43.5889 33.6051 43.3767 33.2306 43.4516 32.6564C43.4766 32.4442 43.7387 31.5329 44.0383 31.7451C44.1007 31.7826 44.625 32.8811 44.6375 32.9934C44.7249 33.5427 44.4128 33.9546 44.4877 34.4788C44.6749 34.5163 45.3864 34.9532 45.5113 34.8409C45.0993 34.017 44.8871 33.2306 45.2991 32.3443C46.2103 32.906 46.6472 34.0045 46.1978 35.0156L47.3213 35.2777C46.8969 34.5537 46.5099 33.9671 46.797 33.0808C46.822 32.9934 46.7346 32.9185 46.9343 32.9559C47.7707 33.0933 48.4947 34.8533 48.0952 35.6273C49.4309 35.9643 50.6292 36.1141 51.9275 35.5399C52.0398 35.2902 51.8775 35.0905 51.9025 34.8284C51.9524 34.1168 52.614 33.268 53.2257 32.9559C53.388 32.906 53.4129 33.1557 53.4254 33.268C53.5377 34.2417 53.1633 34.5538 52.8262 35.3651L53.8623 35.0655C53.9871 34.9532 53.7749 34.354 53.7624 34.1169C53.7499 33.2805 54.1993 32.8686 54.761 32.3568C55.148 32.8311 55.1105 33.4553 54.9483 34.0045C54.8983 34.1793 54.3866 34.9782 54.8235 34.8284C54.9358 34.7909 55.7472 34.4289 55.7472 34.379C55.3977 33.8173 55.3602 33.0433 55.6224 32.4442C55.7597 32.1071 56.0718 31.9199 56.1841 31.5828C56.4587 31.3831 56.7084 32.5815 56.7084 32.7437C56.7084 33.268 56.3963 33.6799 56.2715 34.1668L57.3824 33.6425C57.3824 33.3429 57.1203 33.1432 57.0704 32.8186C56.9206 31.9573 57.1577 31.4455 57.5697 30.734C57.7694 30.6841 57.707 30.759 57.7569 30.8464C58.2812 31.6702 58.2812 32.4317 57.9067 33.318C58.0066 33.4053 59.0177 32.7437 59.0801 32.6314C59.2299 32.3443 58.6682 31.9948 58.5558 31.6827C58.3062 30.9587 58.431 30.2971 58.9053 29.6979C59.8291 30.3221 59.7417 31.3207 59.4671 32.2819C59.6294 32.4317 59.9789 31.9074 60.0787 31.82C60.2036 31.7077 60.7653 31.3457 60.7528 31.2084C59.879 30.5468 59.3922 29.4233 60.0288 28.4122C61.0149 28.9365 61.0774 29.985 61.0149 30.9961C61.2272 30.8339 62.101 29.8477 62.0385 29.673C62.0261 29.623 61.327 29.0488 61.2271 28.924C60.7153 28.2624 60.7528 27.6258 61.0025 26.8643C61.8388 27.3137 62.3131 28.1376 62.2008 29.0988C61.9761 29.0863 62.1259 28.5995 61.8513 28.7992C61.9262 28.9365 62.1384 29.6605 62.3256 29.4358C62.5129 29.2111 63.2868 28.1501 63.2244 27.9503C62.2008 27.3761 61.5018 26.6646 61.8513 25.3914C62.8374 25.616 63.3742 26.5648 63.3118 27.5509L62.8374 27.1265C62.6751 27.2138 63.2244 27.7132 63.2743 27.7257C63.524 27.7756 64.0108 26.39 64.1606 26.1528C63.0871 25.5536 62.413 24.9669 62.6127 23.6063C63.549 23.8435 64.0857 24.58 64.248 25.5037C64.4976 25.7409 64.9346 24.1181 64.8472 24.0432C63.7237 23.8934 63.0496 22.9322 63.1245 21.8088C63.861 21.9711 64.273 22.1583 64.635 22.8449C64.6849 22.9447 64.9595 23.9309 65.0844 23.4815C65.1218 23.3317 65.2965 22.1458 65.2591 22.0834C64.1481 21.8587 63.4116 21.1722 63.3742 20.0113C64.2979 20.1486 64.8971 20.6728 65.309 21.4717C65.309 21.1722 65.6336 20.1486 65.2965 20.0237C65.0968 19.9488 64.7848 19.9738 64.5601 19.8989C63.861 19.6617 63.5739 19.075 63.3742 18.4135C64.1606 18.1513 64.6849 18.8379 65.309 19.1499C65.4214 17.677 64.5601 18.3011 63.8111 17.8018C63.5489 17.627 63.162 17.0903 63.1121 16.7782C63.0871 16.6035 63.1245 16.6659 63.2369 16.6534C63.8985 16.5535 64.4851 16.903 65.0094 17.2526C64.922 17.0279 64.8971 16.3039 64.6974 16.229C63.7986 16.3288 62.7625 15.9668 62.5129 15.0181C62.8624 15.0431 63.2369 14.9807 63.5864 15.0181C63.7362 15.0431 64.4977 15.4426 64.4103 15.143L64.0732 14.4439C63.1245 14.6062 62.3881 14.4065 61.7889 13.6325C62.1509 12.9959 63.0621 13.4328 63.6488 13.4203L63.2494 12.7837C62.3257 12.946 61.2771 12.946 60.8152 11.9973C60.965 12.0223 61.2147 11.8225 61.2896 11.8225H62.5753C62.5753 11.8225 62.7251 12.0472 62.7001 11.7851L62.1259 11.1485C61.2895 11.3981 60.3159 11.4855 59.6918 10.749C60.1536 10.2497 60.8901 10.3745 61.5018 10.4494C61.5392 10.2871 61.3644 10.2123 61.2646 10.1124C61.1273 9.97508 60.9151 9.83775 60.7653 9.68796C60.4158 9.78782 60.2285 10.0625 59.8291 10.1124C59.3173 10.1748 58.406 10.1374 58.1938 9.58811C58.6806 9.1637 59.3423 9.08879 59.9664 9.07631C59.8166 8.85162 59.3298 8.35231 59.0676 8.37728C58.5558 9.13873 57.5572 8.95149 56.7832 8.72679C56.5086 8.32734 58.0939 7.74065 58.4185 7.82803C57.9441 7.25382 57.2701 7.51596 56.621 7.37865C55.9719 7.24134 55.2354 6.6172 54.9733 6.01802C55.51 5.71844 56.3589 5.76836 56.9206 5.96808C57.4823 6.16781 57.9567 7.04161 57.8193 5.89319C58.0191 5.69346 59.0551 6.67961 59.18 6.89182C59.492 7.42858 59.1799 7.9903 59.6668 8.38975C59.8665 8.4272 59.7916 8.32735 59.7792 8.20252C59.7417 7.80307 59.6294 7.41609 59.8041 7.01663C60.5406 7.14146 61.0025 8.00279 61.0149 8.70182C61.0149 8.90155 60.9151 9.13872 60.9401 9.28852C60.9775 9.48824 61.3395 9.70045 61.352 9.95011L61.5267 9.91266C61.5143 9.301 61.2396 8.83913 61.5267 8.22747C62.0635 8.48961 62.6876 9.27604 62.6377 9.90018C62.6127 10.1873 62.3756 10.5493 62.3881 10.7615C62.4005 11.0236 62.6877 11.2483 62.7376 11.498L62.9123 11.4605C62.8874 11.136 62.8 9.97507 63.0996 9.78782C63.3492 9.62555 63.7487 10.4245 63.8236 10.6367C64.0732 11.3482 63.861 11.7601 63.524 12.3967L63.9609 13.3829C64.1107 13.4078 64.0483 13.1832 64.0483 13.0833C64.0732 12.4716 64.0108 12.0722 64.4103 11.5479C64.635 11.2358 64.7224 11.5354 64.8472 11.7726C65.3465 12.8212 65.2092 13.3454 64.4852 14.2068L64.8347 15.2803L65.1093 13.9696C65.1967 13.8447 65.6211 13.1083 65.7709 13.2206C66.2452 14.3565 66.1703 15.2553 65.1842 16.0417L65.4339 17.4398L65.5587 16.6659C65.5462 16.3164 66.1454 15.2803 66.5074 15.3801C67.0317 16.4786 66.6946 17.3899 65.6461 17.9641L65.696 19.0875L66.2078 18.1014C66.445 17.8268 66.7446 17.6146 67.0691 17.4523V18.7879C67.0691 18.9003 66.8319 19.2872 66.7321 19.3996C66.3701 19.799 65.671 19.7616 65.9082 20.5605C66.2577 20.1486 66.7446 19.8864 67.2064 19.6118C67.5185 19.6118 67.169 20.8601 67.0816 21.0349C66.7196 21.7838 65.8458 21.6091 65.696 22.408L67.0317 21.8462C67.1815 21.8712 67.0941 22.4454 67.0566 22.5578C67.0067 22.72 66.5698 23.4191 66.445 23.5439C66.083 23.8809 65.2092 23.9808 65.309 24.6049C65.3839 24.5176 65.4713 24.4801 65.5712 24.4302C65.7459 24.3428 66.7071 23.9184 66.7321 24.218C66.5448 24.6049 66.4699 25.0418 66.1828 25.3789C65.7958 25.8283 64.8222 26.0654 64.6724 26.4524C64.5975 26.6521 64.7848 26.5523 64.8472 26.5398C65.1717 26.5023 65.5212 26.4274 65.8333 26.3276C66.1204 26.365 65.6461 27.1389 65.5712 27.2638C65.0094 28.0377 64.5725 27.9004 63.8985 28.2624C63.7612 28.3373 63.4616 28.6868 63.7487 28.6244C64.1606 28.5495 64.585 28.4497 65.0094 28.4621C64.8347 28.899 64.3853 29.5481 63.9484 29.7728C63.5739 29.9726 62.5379 29.9351 62.4255 30.2347C62.3881 30.4344 62.5129 30.3595 62.6377 30.3595C63.499 30.4219 64.2854 30.4094 63.1869 31.2583C62.8374 31.5329 62.4005 31.7451 61.9512 31.7451C61.5018 31.7451 61.2147 31.4955 60.8277 31.9074L62.2507 32.2569C62.413 32.4941 61.5767 32.9934 61.3894 33.0808C60.3908 33.5302 59.9539 32.9185 59.0551 33.293C58.9303 33.4303 59.0551 33.4428 59.18 33.4677C59.5295 33.5177 61.2396 33.6799 60.4532 34.2292C59.7292 34.741 58.4934 34.8159 57.8817 34.0919C57.7819 34.0919 57.0454 34.5163 57.1453 34.5787C57.8193 34.5413 58.7056 34.7535 58.9553 35.44C58.2063 35.6522 57.682 36.0018 56.8831 35.6647C56.6085 35.5524 56.2465 35.128 56.0593 35.103C55.8346 35.0655 54.9608 35.3651 55.0731 35.4525C55.8096 35.4151 56.8956 35.7896 57.0579 36.576C56.3464 36.6883 55.7347 36.913 55.0482 36.5635C54.3616 36.214 54.449 35.4276 53.2631 35.9768L54.1244 36.2764C54.2243 36.3887 55.1979 37.2376 55.0731 37.3499C54.2617 37.4498 53.4878 37.5496 52.8262 36.9629C52.589 36.7507 52.3518 36.164 52.1022 36.1391L51.3657 36.3138C51.3907 36.6259 51.8276 36.576 51.7152 37.0004C51.3033 37.0378 50.9413 36.8007 50.5418 36.7507C49.7429 36.6509 49.1188 36.8756 48.3573 37.0004C48.2575 36.6009 48.7818 36.6384 48.7818 36.3138L47.9579 36.2265C47.6209 36.4636 47.4461 36.8381 47.0716 37.0628C46.435 37.4498 45.7859 37.3874 45.0744 37.2625C45.0369 36.7757 45.5986 36.6009 45.9357 36.3513L47.0592 35.8769L45.9607 35.7646C45.2117 36.7757 44.1881 37.0129 43.0147 36.4761C43.1895 35.9893 43.901 35.6023 44.3753 35.465C44.575 35.4026 44.987 35.5149 45.0868 35.2777L44.0882 35.0531C43.7262 35.3776 43.3143 35.7271 42.8025 35.802C42.478 35.8395 41.0923 35.7271 41.2172 35.2528C41.317 34.8658 42.6402 34.5288 43.0147 34.5538C42.8275 34.404 42.4405 34.1543 42.2033 34.1668C41.9037 34.1793 41.8164 34.4664 41.6291 34.5538C41.0549 34.8409 39.7192 34.5537 39.3947 33.9546C39.869 33.5177 40.5181 33.5301 41.1173 33.4428C41.005 33.3055 40.593 33.0808 40.4557 33.0683C40.3434 33.0683 40.0188 33.293 39.7692 33.3055C39.2199 33.3304 38.2338 32.9559 37.9342 32.4941C37.8718 32.4067 37.7969 32.4317 37.9342 32.3193C38.2213 32.0821 39.0327 32.0322 39.3947 31.9698C38.9203 31.433 38.1963 31.7826 37.5847 31.6328C37.2976 31.5579 36.6485 30.9837 36.4987 30.734C36.4362 30.6341 36.3114 30.6217 36.4612 30.5093C36.7234 30.4219 36.998 30.4843 37.2726 30.4594C37.3725 30.4594 37.8094 30.4344 37.7594 30.2597C37.6471 29.9601 36.8607 30.01 36.5486 29.9101C36.0243 29.7354 35.4127 29.0988 35.2629 28.5745H36.4737C36.3364 28.2499 35.9369 28.2874 35.7122 28.175C34.9383 27.7881 34.3766 27.2138 34.2393 26.3276C34.6013 26.3276 34.9383 26.4774 35.2878 26.5273C35.3627 26.5273 35.5001 26.6771 35.4377 26.4649C35.3503 26.1278 34.5389 25.9531 34.2268 25.6909C33.8274 25.3539 33.5777 24.6049 33.5402 24.0931C33.5777 24.0432 34.4889 24.4926 34.6262 24.5176C34.9133 24.58 34.6263 24.0931 34.5389 24.0058C34.3392 23.831 33.8398 23.7436 33.6651 23.5564C33.5028 23.3941 32.9161 22.0584 33.0409 21.9461C33.5777 21.8338 33.9522 22.3455 34.414 22.3331C34.2767 21.7464 33.6651 21.7838 33.3031 21.3719L33.0284 20.8726L32.8662 20.1361V19.6992L32.7913 19.6368Z" fill="#FF7D23"/>
<path d="M50.193 1.72494C50.0932 1.86225 50.992 3.31026 51.1542 3.55991C51.2541 3.72219 51.5287 4.2215 51.691 4.2215L53.6258 3.09803C53.3387 2.56127 53.2513 1.58762 54.0128 1.46279C55.5482 1.22561 55.4483 3.55991 53.8006 3.18542L52.7146 6.88033L47.1722 6.95524L46.236 3.37266C46.1237 3.08555 45.7991 3.21038 45.5245 3.13548C44.5633 2.87334 44.7006 1.32548 45.9114 1.45031C46.6854 1.53769 46.7353 2.5488 46.2984 3.04811L48.2208 4.209L49.8186 1.92465C49.8435 1.77485 49.2693 1.52521 49.1819 1.21313C48.9198 0.364303 49.6688 -0.284798 50.4427 0.127135C51.1168 0.489137 50.9545 1.6001 50.1806 1.73741L50.193 1.72494Z" fill="#FF7D23"/>
<path d="M58.5432 20.1115L58.331 20.0616L55.8843 23.4694C55.8094 23.7315 56.3462 23.5443 56.4586 23.5193C56.7706 23.4569 56.3712 23.9063 56.3212 23.9812C54.8857 25.7163 52.5514 25.7288 51.6027 23.5318C51.0785 22.3085 51.041 19.787 50.9786 18.3889C50.9287 17.228 50.9286 16.0546 50.8912 14.8937C51.7151 14.8063 52.4765 15.2182 53.2879 15.2682L53.7498 14.0823C52.8885 13.5705 51.8649 13.5206 50.8912 13.3833C50.7789 13.3084 50.7789 12.834 50.8288 12.6967C50.8413 12.6468 50.8787 12.6093 50.9286 12.5844C50.9911 12.5469 51.3905 12.2848 51.5778 11.9602C51.6027 11.9103 51.6277 11.8604 51.6402 11.8104C51.8898 11.1738 51.7775 10.4373 51.2407 9.93802C49.7802 8.60235 47.4085 10.3 48.5819 12.0851C48.9065 12.5719 49.4432 12.6717 49.256 13.4332C48.8315 13.3833 46.4473 13.7453 46.335 14.0948C46.285 14.2571 46.6595 15.2307 46.7219 15.2432L49.0313 14.8188C49.2435 14.8687 49.1811 15.9797 49.1686 16.2294C49.1062 18.0144 49.0562 20.4236 48.8066 22.1587C48.3322 25.4417 45.4861 26.3155 43.4764 23.6317C43.389 23.3321 44.138 23.6192 44.163 23.5942C44.1879 23.4444 44.1255 23.3446 44.0631 23.2197C43.5763 22.1961 42.303 21.1725 41.7538 20.124L41.4916 20.0616C41.7038 21.3973 41.4792 22.6955 41.3169 24.0186C41.7538 24.0686 41.8287 23.5193 42.2656 23.5817C42.4154 24.4555 43.1519 25.3918 43.8759 25.8911C45.5361 27.0395 47.5208 26.9646 49.1811 28.1629C49.3433 28.2753 49.8926 28.837 49.9675 28.8495C50.2421 28.8745 50.5167 28.4126 50.7414 28.2378C52.5514 26.8397 54.9232 27.0894 56.5959 25.5665C57.1826 25.0297 57.6569 24.3682 57.8441 23.5817C58.2061 23.5817 58.2935 24.0686 58.7055 24.0186C58.5057 22.7204 58.5182 21.4097 58.5307 20.1115H58.5432ZM49.7303 10.4373C51.0909 10.0878 51.2532 12.2099 49.7303 11.8604C49.0812 11.7106 49.0188 10.6246 49.7303 10.4373ZM50.0049 26.6775C49.8427 26.2531 49.4931 25.941 49.0188 25.6913C49.5555 25.5915 49.8676 25.2544 50.0049 24.7052C50.2171 25.2794 50.5417 25.604 50.9911 25.6913C50.5292 25.8786 50.2047 26.2031 50.0049 26.6775Z" fill="#FF7D23"/>
</svg>
