<svg width="42" height="42" viewBox="0 0 42 42" fill="none" xmlns="http://www.w3.org/2000/svg">
<rect x="0.5" y="41.5" width="41" height="41" rx="20.5" transform="rotate(-90 0.5 41.5)" fill="white" fill-opacity="0.1"/>
<rect x="0.5" y="41.5" width="41" height="41" rx="20.5" transform="rotate(-90 0.5 41.5)" stroke="#636363"/>
<path d="M20.4 17.5069L14.7 23.1069C14.3 23.5069 14.3 24.1069 14.7 24.5069C15.1 24.9069 15.7 24.9069 16.1 24.5069L21 19.6069L25.9 24.5069C26.1 24.7069 26.3 24.8069 26.6 24.8069C27.2 24.8069 27.6 24.4069 27.6 23.8069C27.6 23.5069 27.5 23.3069 27.3 23.1069L21.6 17.4069C21.4 17.1069 20.8 17.1069 20.4 17.5069Z" fill="white"/>
</svg>
