<svg width="1346" height="134" viewBox="0 0 1346 134" fill="none" xmlns="http://www.w3.org/2000/svg">
<path d="M34.85 141.06H-1.59929e-06L60.7801 2.07444H105.172L166.367 141.06H130.688L117.619 110.358H48.1262L34.85 141.06ZM73.2265 52.0676L60.1577 82.3539H105.587L92.5185 52.0676L84.0134 30.4938H81.7316L73.2265 52.0676ZM301.617 141.06H171.344V113.055L253.076 32.3607V30.0789H173.211V2.07444H299.957V30.0789L215.529 110.773V113.055H301.617V141.06ZM433.252 141.06H315.634V2.07444H433.252V30.0789H346.75V57.2536H430.141V85.0506H346.75V113.055H433.252V141.06ZM478.426 141.06H447.31V2.07444H524.063C558.29 2.07444 577.79 17.2176 577.79 43.77C577.79 66.381 564.721 79.8646 538.584 82.3539V84.0134C551.03 87.3325 555.801 93.9706 560.987 103.72L581.109 141.06H545.014L525.93 104.965C520.329 94.178 515.143 90.6515 498.962 90.6515H478.426V141.06ZM478.426 30.0789V67.2108H523.855C538.584 67.2108 545.222 63.0619 545.222 48.5411C545.222 34.85 538.584 30.0789 523.855 30.0789H478.426ZM662.505 143.134C616.453 143.134 587.826 114.922 587.826 71.567C587.826 28.2119 616.453 3.51374e-05 662.505 3.51374e-05C709.594 3.51374e-05 738.013 28.2119 738.013 71.567C738.013 114.922 709.594 143.134 662.505 143.134ZM662.505 113.263C692.999 113.263 704.823 102.476 704.823 71.567C704.823 40.6584 692.999 29.8715 662.505 29.8715C632.011 29.8715 620.809 40.6584 620.809 71.567C620.809 102.476 632.011 113.263 662.505 113.263ZM860.966 141.06H829.849V30.0789H778.197V2.07444H912.618V30.0789H860.966V141.06ZM1041.39 141.06H923.775V2.07444H1041.39V30.0789H954.891V57.2536H1038.28V85.0506H954.891V113.055H1041.39V141.06ZM1126.6 143.134C1080.76 143.134 1052.34 114.922 1052.34 71.567C1052.34 28.2119 1080.76 3.51374e-05 1126.6 3.51374e-05C1169.75 3.51374e-05 1197.55 21.5738 1197.55 56.8387V59.9503H1162.9V56.8387C1162.9 38.584 1152.53 29.8715 1127.23 29.8715C1096.73 29.8715 1085.32 40.6584 1085.32 71.567C1085.32 102.476 1096.73 113.263 1127.23 113.263C1152.53 113.263 1162.9 104.55 1162.9 86.2953V83.1837H1197.55V86.2953C1197.55 121.56 1169.96 143.134 1126.6 143.134ZM1242.15 141.06H1211.03V2.07444H1242.15V57.2536H1314.75V2.07444H1345.87V141.06H1314.75V85.2581H1242.15V141.06Z" fill="white" fill-opacity="0.08"/>
</svg>
