<svg width="112" height="27" viewBox="0 0 112 27" fill="none" xmlns="http://www.w3.org/2000/svg">
<path d="M18.432 25.7041L16.92 21.1681H6.876L5.364 25.7041H-1.70805e-06L8.82 0.5041H14.976L23.832 25.7041H18.432ZM8.46 16.5241H15.372L11.916 6.2281L8.46 16.5241ZM31.5709 20.9521H42.2629V25.7041H25.2349V21.7441L35.7109 5.2561H25.4869V0.5041H42.0469V4.4281L31.5709 20.9521ZM50.5125 20.9521H61.1325V25.7041H45.5445V0.5041H60.9525V5.2561H50.5125V10.6201H60.0525V15.3001H50.5125V20.9521ZM78.4583 25.7041L73.3823 16.9561H69.6023V25.7041H64.6343V0.5041H74.7143C77.0423 0.5041 79.0223 1.3201 80.6543 2.9521C82.2863 4.5841 83.1023 6.5521 83.1023 8.8561C83.1023 10.4161 82.6583 11.8681 81.7703 13.2121C80.8823 14.5321 79.7063 15.5281 78.2423 16.2001L83.8223 25.7041H78.4583ZM69.6023 5.1481V12.6001H74.7143C75.6503 12.6001 76.4543 12.2401 77.1263 11.5201C77.7983 10.7761 78.1343 9.8881 78.1343 8.8561C78.1343 7.8241 77.7983 6.9481 77.1263 6.2281C76.4543 5.5081 75.6503 5.1481 74.7143 5.1481H69.6023ZM107.67 22.4281C105.126 24.9481 102.03 26.2081 98.3824 26.2081C94.7344 26.2081 91.6384 24.9481 89.0944 22.4281C86.5744 19.8841 85.3144 16.7761 85.3144 13.1041C85.3144 9.4321 86.5744 6.3361 89.0944 3.8161C91.6384 1.2721 94.7344 9.98974e-05 98.3824 9.98974e-05C102.03 9.98974e-05 105.126 1.2721 107.67 3.8161C110.214 6.3361 111.486 9.4321 111.486 13.1041C111.486 16.7761 110.214 19.8841 107.67 22.4281ZM92.5864 19.0441C94.1464 20.5801 96.0784 21.3481 98.3824 21.3481C100.686 21.3481 102.618 20.5801 104.178 19.0441C105.738 17.4841 106.518 15.5041 106.518 13.1041C106.518 10.7041 105.738 8.7241 104.178 7.1641C102.618 5.6041 100.686 4.8241 98.3824 4.8241C96.0784 4.8241 94.1464 5.6041 92.5864 7.1641C91.0264 8.7241 90.2464 10.7041 90.2464 13.1041C90.2464 15.5041 91.0264 17.4841 92.5864 19.0441Z" fill="#242124"/>
</svg>
