<svg width="83" height="46" viewBox="0 0 83 46" fill="none" xmlns="http://www.w3.org/2000/svg">
<g clip-path="url(#clip0_6700_1053)">
<path d="M34.67 29.73C32.94 24.47 35.28 20.33 31.57 15.39C23.65 4.81 6.79002 11.91 9.33002 25.26C10.62 32.04 18.57 36.53 25.07 34.41C25.28 34.34 25.77 34.28 25.74 34.02L24.21 28.3C21.95 29.06 19.92 28.93 18.17 27.69C18.15 27.68 18.13 27.66 18.11 27.65C17.85 27.46 17.6 27.26 17.37 27.03C15.36 25.06 14.76 21.76 16.64 19.1C19.2 15.49 24.84 15.82 26.84 19.81C27.93 21.99 27.29 24.23 27.46 26.59C28.02 34.52 34.18 42.73 41.78 45.09L42.2 38.49C38.57 36.63 35.94 33.62 34.66 29.74L34.67 29.73Z" fill="white"/>
<path d="M59.38 9.44007C52.26 10.0301 47.72 16.3601 48.07 22.6801C48.22 25.3001 49.2 27.9201 51.18 30.1301C52.48 31.5801 54.04 32.6501 55.73 33.3401C60.55 35.3101 66.4 34.1801 70.07 30.0001C77.56 21.4601 70.52 8.52007 59.38 9.45007V9.44007ZM63.85 26.8801C58.77 30.1801 52.6 24.8101 55.08 19.3001C55.8 17.7001 57.75 16.0801 59.51 15.8401C66.1 14.9401 69.45 23.2401 63.85 26.8801Z" fill="white"/>
<path d="M60.6 24.45C62.0359 24.45 63.2 23.2814 63.2 21.84C63.2 20.3985 62.0359 19.23 60.6 19.23C59.1641 19.23 58 20.3985 58 21.84C58 23.2814 59.1641 24.45 60.6 24.45Z" fill="white"/>
<path d="M75.58 5.92C66.53 -2.5 52.51 -1.86 44.26 7.35C43.83 7.83 42.75 9.11 42.31 9.8L43.05 12.45L44.56 17.8L44.99 19.34L45.15 19.92C45.15 19.92 45.21 19.54 45.36 18.92C45.61 17.89 46.11 16.19 47.04 14.43C47.34 13.87 47.67 13.29 48.06 12.74C48.63 11.95 49.35 11.16 50.3 10.31C50.61 10.03 50.92 9.77 51.24 9.53C51.48 9.37 51.68 9.22 51.84 9.09C63.92 0.59 81.05 13.34 74.91 27.79C71.91 34.86 64.87 37.91 58.36 37.02C49 36.17 43.44 28.84 41.68 15.03C41.68 15.03 41.68 15.03 41.68 15.02C41.45 13.42 40.52 11.64 40.46 11.53C40.14 11 39.8 10.46 39.41 9.93C26.6 -7.76 -1.30002 2.08 0.0499761 23.78C0.799976 35.81 12.13 45.04 24.01 43.74C26.95 43.42 29.74 42.44 32.38 41.16L28.21 36.27C23.14 38.43 17.44 38.09 12.91 34.86C4.06998 28.57 4.33998 15.45 13.42 9.52C21.26 4.41 32.03 7.76 35.75 16.29C36.26 17.47 36.54 18.63 36.72 19.77C36.74 19.89 36.75 20 36.77 20.12C36.81 20.49 36.85 20.86 36.9 21.22C38.3 32.01 43.75 39.04 53.24 42.3C53.44 42.36 53.63 42.43 53.83 42.49C54.27 42.63 54.72 42.76 55.18 42.87C55.18 42.87 55.19 42.87 55.2 42.87C60.87 44.28 67.08 43.45 72.17 40.26C84.4 32.59 86.24 15.83 75.58 5.91V5.92Z" fill="white"/>
</g>
<defs>
<clipPath id="clip0_6700_1053">
<rect width="82.57" height="45.08" fill="white"/>
</clipPath>
</defs>
</svg>
