<svg width="50" height="50" viewBox="0 0 50 50" fill="none" xmlns="http://www.w3.org/2000/svg">
<rect width="49.3735" height="49.3735" rx="24.6867" fill="black"/>
<path fill-rule="evenodd" clip-rule="evenodd" d="M25.6199 19.09C25.8375 18.8723 26.1904 18.8723 26.4081 19.09L31.611 24.2928C31.7155 24.3973 31.7743 24.5391 31.7743 24.6869C31.7743 24.8348 31.7155 24.9766 31.611 25.0812L26.4081 30.284C26.1904 30.5017 25.8375 30.5017 25.6199 30.284C25.4021 30.0663 25.4021 29.7133 25.6199 29.4956L29.871 25.2444H17.8382C17.5303 25.2444 17.2807 24.9948 17.2807 24.6869C17.2807 24.3791 17.5303 24.1295 17.8382 24.1295H29.871L25.6199 19.8784C25.4021 19.6607 25.4021 19.3077 25.6199 19.09Z" fill="white"/>
</svg>
