<svg width="44" height="44" viewBox="0 0 44 44" fill="none" xmlns="http://www.w3.org/2000/svg">
<rect width="44" height="44" rx="8" fill="#FFF7F7"/>
<path fill-rule="evenodd" clip-rule="evenodd" d="M13.1716 15.1716C12 16.3431 12 18.2288 12 22C12 25.7712 12 27.6569 13.1716 28.8284C14.3431 30 16.2288 30 20 30H24C27.7712 30 29.6569 30 30.8284 28.8284C32 27.6569 32 25.7712 32 22C32 18.2288 32 16.3431 30.8284 15.1716C29.6569 14 27.7712 14 24 14H20C16.2288 14 14.3431 14 13.1716 15.1716ZM28.5762 17.5199C28.8413 17.8381 28.7983 18.311 28.4801 18.5762L26.2837 20.4066C25.3973 21.1452 24.6789 21.7439 24.0448 22.1517C23.3843 22.5765 22.7411 22.8449 22 22.8449C21.2589 22.8449 20.6157 22.5765 19.9552 22.1517C19.3211 21.7439 18.6027 21.1452 17.7164 20.4066L15.5199 18.5762C15.2017 18.311 15.1587 17.8381 15.4238 17.5199C15.689 17.2017 16.1619 17.1587 16.4801 17.4238L18.639 19.2229C19.572 20.0004 20.2197 20.5384 20.7666 20.8901C21.2959 21.2306 21.6549 21.3449 22 21.3449C22.3451 21.3449 22.7041 21.2306 23.2334 20.8901C23.7803 20.5384 24.428 20.0004 25.361 19.2229L27.5199 17.4238C27.8381 17.1587 28.311 17.2017 28.5762 17.5199Z" fill="black" fill-opacity="0.52"/>
</svg>
