<svg width="21" height="21" viewBox="0 0 21 21" fill="none" xmlns="http://www.w3.org/2000/svg">
<mask id="mask0_6700_1098" style="mask-type:luminance" maskUnits="userSpaceOnUse" x="1" y="1" width="19" height="19">
<path d="M19.3333 1H1V19.3333H19.3333V1Z" fill="white"/>
</mask>
<g mask="url(#mask0_6700_1098)">
<path d="M19.3333 10.1666C19.3333 5.1041 15.2292 1 10.1666 1C5.1041 1 1 5.1041 1 10.1666C1 14.4654 3.95974 18.0727 7.95237 19.0634V12.968H6.0622V10.1666H7.95237V8.9596C7.95237 5.83964 9.3644 4.3935 12.4275 4.3935C13.0083 4.3935 14.0104 4.50754 14.4203 4.6212V7.16037C14.204 7.13764 13.8282 7.12627 13.3614 7.12627C11.8584 7.12627 11.2776 7.6957 11.2776 9.17594V10.1666H14.2718L13.7574 12.968H11.2776V19.2662C15.8159 18.718 19.3333 14.8534 19.3333 10.1666Z" fill="white"/>
</g>
</svg>
