<svg width="100" height="64" viewBox="0 0 100 64" fill="none" xmlns="http://www.w3.org/2000/svg">
<path d="M7.70789 37.7482L10.9606 34.9875V24.7783H7.70789V37.7482Z" fill="#BE7F34"/>
<path d="M92.2787 6.90177C92.2787 3.0887 89.19 0 85.3906 0H13.9953C10.1822 0 7.10718 3.0887 7.10718 6.90177V10.9745H92.2924V6.90177H92.2787Z" fill="#E1A24F"/>
<path d="M93.0982 13.8037H6.88808C3.07504 13.8037 0 16.8924 0 20.6918V30.86C0 34.6731 3.08871 37.7482 6.88808 37.7482H7.70807V24.7646H92.2919V37.7482H93.1119C96.925 37.7482 100 34.6594 100 30.86V20.6918C100 16.8788 96.9113 13.8037 93.1119 13.8037" fill="#E1A24F"/>
<path d="M89.0248 24.7783V34.9875L92.2774 37.7482V24.7783H89.0248Z" fill="#BE7F34"/>
<path d="M3.63501 53.7383V47.9163C3.64868 46.5769 4.48235 45.9072 6.13604 45.9072H11.0971V47.8343H6.71004C6.3957 47.8343 6.24537 47.9709 6.24537 48.2306V49.1736H11.0424V51.1006H6.24537V53.752H3.63501V53.7383Z" fill="#E1A24F"/>
<path d="M27.1149 45.9072H24.5319V53.752H27.1149V45.9072Z" fill="#E1A24F"/>
<path d="M44.8544 51.0733C44.95 51.251 45.0593 51.3877 45.1824 51.456C45.3054 51.5243 45.4284 51.5653 45.5514 51.5653H45.8657C45.8657 51.5653 45.9887 51.5243 46.1527 51.456C46.3167 51.3877 46.4534 51.251 46.549 51.087L49.2961 45.9072H52.2618L48.2301 52.8637C47.8884 53.4514 47.3554 53.7383 46.631 53.7383H44.7997C44.1163 53.7383 43.597 53.4377 43.2553 52.85L39.2373 45.9072H42.2167L44.868 51.0733H44.8544Z" fill="#E1A24F"/>
<path d="M73.432 51.579V53.752H66.7216C64.7535 53.752 63.7695 52.9593 63.7695 51.374V48.0939C63.7695 46.6316 64.7535 45.9072 66.7216 45.9072H71.5323C72.8853 45.9072 73.555 46.5222 73.555 47.7386V48.8593C73.555 49.447 73.391 49.8843 73.0493 50.1576C72.7213 50.431 72.202 50.5676 71.5186 50.5676H66.3389V51.0733C66.3389 51.415 66.5302 51.5927 66.9266 51.5927H73.4046L73.432 51.579ZM66.9402 47.9436C66.5439 47.9436 66.3526 48.1349 66.3526 48.5039V49.0369H70.4799C70.8079 49.0369 70.9856 48.8456 70.9856 48.4629C70.9856 48.1213 70.8216 47.9436 70.4799 47.9436H66.9402Z" fill="#E1A24F"/>
<path d="M87.4398 47.9436V45.9072H94.1365C96.1045 45.9072 97.0885 46.6999 97.0885 48.2989V51.579C97.0885 53.0413 96.1045 53.7657 94.1365 53.7657H89.3258C87.9728 53.7657 87.3031 53.1507 87.3031 51.9343V50.759C87.3031 49.5836 87.9728 48.9959 89.3258 48.9959H94.5055V48.4493C94.5055 48.1076 94.3142 47.9436 93.9178 47.9436H87.4398ZM93.9041 51.6747C94.3005 51.6747 94.4919 51.4833 94.4919 51.1143V50.5813H90.3645C90.0364 50.5813 89.8588 50.7726 89.8588 51.1553C89.8588 51.5107 90.0228 51.6883 90.3645 51.6883H93.9041V51.6747Z" fill="#E1A24F"/>
<path d="M6.4097 57.9462C6.7377 58.1102 6.98371 58.3562 7.16138 58.6569C7.33905 58.9712 7.42105 59.3265 7.42105 59.7366C7.42105 60.1466 7.33905 60.5019 7.16138 60.8026C6.98371 61.1032 6.7377 61.3492 6.4097 61.5132C6.0817 61.6772 5.71271 61.7593 5.28903 61.7593H3.86768V57.7002H5.28903C5.71271 57.7002 6.09536 57.7822 6.4097 57.9462ZM6.24571 60.7069C6.47804 60.4746 6.60104 60.1465 6.60104 59.7229C6.60104 59.2992 6.47804 58.9712 6.24571 58.7252C6.01337 58.4792 5.68537 58.3699 5.2617 58.3699H4.68769V61.0486H5.2617C5.68537 61.0486 6.01337 60.9255 6.24571 60.6932V60.7069Z" fill="black"/>
<path d="M13.3401 60.3792H10.9894C11.0031 60.6115 11.0851 60.7892 11.2354 60.9259C11.3858 61.0625 11.5498 61.1172 11.7684 61.1172C12.0691 61.1172 12.2878 60.9805 12.4108 60.7209H13.2855C13.1898 61.0352 13.0121 61.2812 12.7525 61.4862C12.4928 61.6912 12.1648 61.7869 11.7821 61.7869C11.4678 61.7869 11.1945 61.7185 10.9485 61.5819C10.7024 61.4452 10.5111 61.2538 10.3744 60.9942C10.2378 60.7482 10.1694 60.4475 10.1694 60.1195C10.1694 59.7915 10.2378 59.4908 10.3744 59.2448C10.5111 58.9988 10.7024 58.7938 10.9485 58.6571C11.1945 58.5205 11.4678 58.4521 11.7958 58.4521C12.1238 58.4521 12.3835 58.5205 12.6158 58.6435C12.8618 58.7801 13.0531 58.9578 13.1761 59.2038C13.3128 59.4498 13.3811 59.7232 13.3811 60.0375C13.3811 60.1605 13.3811 60.2562 13.3538 60.3518L13.3401 60.3792ZM12.5201 59.8325C12.5201 59.6275 12.4381 59.4498 12.2878 59.3268C12.1375 59.2038 11.9598 59.1355 11.7411 59.1355C11.5361 59.1355 11.3721 59.1902 11.2354 59.3132C11.0988 59.4362 11.0168 59.6002 10.9758 59.8188H12.5065L12.5201 59.8325Z" fill="black"/>
<path d="M16.8106 61.6639C16.6056 61.5682 16.4416 61.4452 16.3186 61.2812C16.1956 61.1172 16.1273 60.9396 16.1136 60.7346H16.9336C16.9473 60.8576 17.0157 60.9669 17.1113 61.0489C17.2207 61.1309 17.3573 61.1719 17.5076 61.1719C17.658 61.1719 17.781 61.1446 17.8767 61.0762C17.9723 61.0079 18.0133 60.9395 18.0133 60.8439C18.0133 60.7345 17.9587 60.6662 17.8493 60.6115C17.74 60.5569 17.576 60.5022 17.3437 60.4339C17.0976 60.3792 16.9063 60.3109 16.756 60.2562C16.6057 60.1879 16.469 60.1058 16.3596 59.9692C16.2503 59.8462 16.1956 59.6685 16.1956 59.4499C16.1956 59.2722 16.2503 59.1082 16.346 58.9578C16.4553 58.8075 16.592 58.6982 16.7833 58.6025C16.9746 58.5068 17.207 58.4795 17.4666 58.4795C17.8493 58.4795 18.1637 58.5752 18.3823 58.7665C18.6147 58.9579 18.7377 59.2175 18.765 59.5455H17.986C17.986 59.4225 17.9177 59.3132 17.822 59.2448C17.7263 59.1628 17.6033 59.1355 17.4393 59.1355C17.289 59.1355 17.1797 59.1628 17.0977 59.2175C17.0157 59.2722 16.9746 59.3542 16.9746 59.4499C16.9746 59.5592 17.0293 59.6412 17.1387 59.6959C17.248 59.7505 17.412 59.8052 17.6443 59.8735C17.8767 59.9282 18.068 59.9966 18.2183 60.0512C18.3687 60.1196 18.5053 60.2152 18.6147 60.3382C18.724 60.4749 18.7787 60.6389 18.7923 60.8576C18.7923 61.0489 18.7377 61.2129 18.642 61.3632C18.5327 61.5136 18.396 61.6229 18.2047 61.7049C18.0133 61.7869 17.7947 61.8279 17.535 61.8279C17.2753 61.8279 17.0293 61.7869 16.8243 61.6912L16.8106 61.6639Z" fill="black"/>
<path d="M21.8393 58.0017C21.7436 57.906 21.7026 57.7967 21.7026 57.66C21.7026 57.5233 21.7436 57.414 21.8393 57.3183C21.935 57.2226 22.058 57.1816 22.1946 57.1816C22.3313 57.1816 22.4543 57.2226 22.55 57.3183C22.6456 57.414 22.6866 57.5233 22.6866 57.66C22.6866 57.7967 22.6456 57.906 22.55 58.0017C22.4543 58.0973 22.3313 58.1383 22.1946 58.1383C22.058 58.1383 21.935 58.0973 21.8393 58.0017ZM22.591 58.5347V61.7601H21.771V58.5347H22.591Z" fill="black"/>
<path d="M27.6204 58.6162C27.7981 58.7118 27.9484 58.8348 28.0578 58.9852V58.5205H28.8778V61.7732C28.8778 62.0739 28.8231 62.3336 28.7001 62.5796C28.5771 62.8256 28.3995 63.0032 28.1535 63.1399C27.9074 63.2766 27.6204 63.3449 27.2788 63.3449C26.8141 63.3449 26.4451 63.2356 26.1581 63.0306C25.8711 62.8119 25.6934 62.5249 25.6661 62.1559H26.4724C26.5134 62.3062 26.6091 62.4156 26.7458 62.5112C26.8824 62.5932 27.0601 62.6479 27.2651 62.6479C27.4974 62.6479 27.6888 62.5796 27.8391 62.4292C27.9895 62.2789 28.0578 62.0739 28.0578 61.7869V61.2812C27.9484 61.4316 27.8118 61.5546 27.6204 61.6639C27.4428 61.7596 27.2241 61.8142 26.9918 61.8142C26.7184 61.8142 26.4724 61.7459 26.2401 61.6092C26.0214 61.4725 25.8437 61.2676 25.7071 61.0215C25.5704 60.7619 25.5157 60.4749 25.5157 60.1468C25.5157 59.8188 25.5841 59.5318 25.7071 59.2858C25.8437 59.0398 26.0078 58.8348 26.2401 58.6982C26.4588 58.5615 26.7184 58.4932 26.9918 58.4932C27.2378 58.4932 27.4428 58.5342 27.6204 58.6298V58.6162ZM27.9348 59.6275C27.8528 59.4908 27.7571 59.3815 27.6204 59.2995C27.4838 59.2175 27.3471 59.1902 27.1968 59.1902C27.0464 59.1902 26.9098 59.2312 26.7731 59.2995C26.6501 59.3678 26.5408 59.4772 26.4588 59.6275C26.3768 59.7778 26.3358 59.9419 26.3358 60.1332C26.3358 60.3245 26.3768 60.5022 26.4588 60.6389C26.5408 60.7755 26.6364 60.8985 26.7731 60.9669C26.9098 61.0489 27.0464 61.0899 27.1831 61.0899C27.3198 61.0899 27.4701 61.0489 27.6068 60.9806C27.7434 60.8985 27.8391 60.8029 27.9211 60.6525C28.0031 60.5158 28.0441 60.3382 28.0441 60.1468C28.0441 59.9555 28.0031 59.7778 27.9211 59.6412L27.9348 59.6275Z" fill="black"/>
<path d="M34.7275 58.8495C34.9598 59.0955 35.0828 59.4371 35.0828 59.8608V61.7468H34.2628V59.9701C34.2628 59.7105 34.1945 59.5191 34.0715 59.3825C33.9485 59.2458 33.7708 59.1775 33.5522 59.1775C33.3335 59.1775 33.1558 59.2458 33.0192 59.3825C32.8825 59.5191 32.8278 59.7105 32.8278 59.9701V61.7468H32.0078V58.5214H32.8278V58.9178C32.9372 58.7811 33.0738 58.6718 33.2378 58.5898C33.4018 58.5078 33.5932 58.4668 33.7982 58.4668C34.1809 58.4668 34.4952 58.5898 34.7275 58.8358V58.8495Z" fill="black"/>
<path d="M45.1285 57.6875L43.7482 60.3389V61.7603H42.9282V60.3389L41.5479 57.6875H42.4635L43.3382 59.5462L44.1992 57.6875H45.1012H45.1285Z" fill="black"/>
<path d="M48.5175 61.5965C48.2715 61.4598 48.0802 61.2685 47.9299 61.0088C47.7795 60.7491 47.7112 60.4622 47.7112 60.1342C47.7112 59.8062 47.7795 59.5191 47.9299 59.2595C48.0802 59.0135 48.2715 58.8085 48.5312 58.6718C48.7772 58.5351 49.0642 58.4668 49.3785 58.4668C49.6929 58.4668 49.9662 58.5351 50.2259 58.6718C50.4719 58.8085 50.6769 58.9998 50.8272 59.2595C50.9775 59.5055 51.0459 59.8062 51.0459 60.1342C51.0459 60.4622 50.9775 60.7491 50.8272 61.0088C50.6769 61.2685 50.4719 61.4598 50.2259 61.5965C49.9662 61.7332 49.6929 61.8015 49.3785 61.8015C49.0642 61.8015 48.7909 61.7332 48.5449 61.5965H48.5175ZM49.7749 60.9815C49.9115 60.9132 50.0072 60.8038 50.0892 60.6535C50.1712 60.5031 50.2122 60.3392 50.2122 60.1342C50.2122 59.8335 50.1302 59.5875 49.9662 59.4235C49.8022 59.2595 49.6109 59.1775 49.3785 59.1775C49.1462 59.1775 48.9549 59.2595 48.7908 59.4235C48.6405 59.5875 48.5585 59.8198 48.5585 60.1342C48.5585 60.4485 48.6405 60.6808 48.7908 60.8448C48.9412 61.0088 49.1325 61.0908 49.3649 61.0908C49.5152 61.0908 49.6519 61.0498 49.7749 60.9815Z" fill="black"/>
<path d="M57.0038 58.5342V61.7596H56.1837V61.3496C56.0744 61.4862 55.9377 61.5955 55.7737 61.6776C55.6097 61.7596 55.4184 61.8006 55.2271 61.8006C54.9811 61.8006 54.7487 61.7459 54.5574 61.6366C54.366 61.5272 54.2157 61.3769 54.1064 61.1719C53.997 60.9669 53.9424 60.7209 53.9424 60.4339V58.5479H54.7624V60.3245C54.7624 60.5842 54.8307 60.7755 54.9537 60.9122C55.0767 61.0489 55.2544 61.1172 55.4731 61.1172C55.6917 61.1172 55.8694 61.0489 56.0061 60.9122C56.1291 60.7755 56.1974 60.5842 56.1974 60.3245V58.5479H57.0174L57.0038 58.5342Z" fill="black"/>
<path d="M61.3641 58.6298C61.5281 58.5342 61.7194 58.4795 61.9381 58.4795V59.3405H61.7194C61.4597 59.3405 61.2684 59.3952 61.1454 59.5182C61.0087 59.6412 60.954 59.8462 60.954 60.1469V61.7596H60.134V58.5342H60.954V59.0398C61.0634 58.8758 61.2001 58.7392 61.3641 58.6435V58.6298Z" fill="black"/>
<path d="M71.082 57.9462C71.41 58.1102 71.656 58.3562 71.8336 58.6569C72.0113 58.9712 72.0933 59.3265 72.0933 59.7366C72.0933 60.1466 72.0113 60.5019 71.8336 60.8026C71.656 61.1032 71.41 61.3492 71.082 61.5132C70.754 61.6772 70.3849 61.7593 69.9613 61.7593H68.5399V57.7002H69.9613C70.3849 57.7002 70.7676 57.7822 71.082 57.9462ZM70.918 60.7069C71.1503 60.4746 71.2733 60.1465 71.2733 59.7229C71.2733 59.2992 71.1503 58.9712 70.918 58.7252C70.6856 58.4792 70.3576 58.3699 69.934 58.3699H69.3599V61.0486H69.934C70.3576 61.0486 70.6856 60.9255 70.918 60.6932V60.7069Z" fill="black"/>
<path d="M76.262 58.6298C76.426 58.5342 76.6173 58.4795 76.836 58.4795V59.3405H76.6173C76.3577 59.3405 76.1664 59.3952 76.0434 59.5182C75.9067 59.6412 75.852 59.8462 75.852 60.1469V61.7596H75.032V58.5342H75.852V59.0398C75.9613 58.8758 76.098 58.7392 76.262 58.6435V58.6298Z" fill="black"/>
<path d="M82.699 60.3792H80.3483C80.362 60.6115 80.444 60.7892 80.5943 60.9259C80.7447 61.0625 80.9087 61.1172 81.1274 61.1172C81.428 61.1172 81.6467 60.9805 81.7697 60.7209H82.6443C82.5487 61.0352 82.371 61.2812 82.1114 61.4862C81.8517 61.6912 81.5237 61.7869 81.141 61.7869C80.8267 61.7869 80.5533 61.7185 80.3073 61.5819C80.0613 61.4452 79.87 61.2538 79.7333 60.9942C79.5966 60.7482 79.5283 60.4475 79.5283 60.1195C79.5283 59.7915 79.5966 59.4908 79.7333 59.2448C79.87 58.9988 80.0613 58.7938 80.3073 58.6571C80.5533 58.5205 80.8267 58.4521 81.1547 58.4521C81.4827 58.4521 81.7424 58.5205 81.9747 58.6435C82.2207 58.7801 82.412 58.9578 82.535 59.2038C82.6717 59.4498 82.74 59.7232 82.74 60.0375C82.74 60.1605 82.74 60.2562 82.7127 60.3518L82.699 60.3792ZM81.879 59.8325C81.879 59.6275 81.797 59.4498 81.6467 59.3268C81.4963 59.2038 81.3187 59.1355 81.1 59.1355C80.895 59.1355 80.731 59.1902 80.5943 59.3132C80.4577 59.4362 80.3757 59.6002 80.3347 59.8188H81.8653L81.879 59.8325Z" fill="black"/>
<path d="M85.6225 59.2595C85.7591 59.0135 85.9232 58.8085 86.1555 58.6718C86.3742 58.5351 86.6338 58.4668 86.9071 58.4668C87.1532 58.4668 87.3582 58.5214 87.5359 58.6171C87.7135 58.7128 87.8638 58.8358 87.9732 58.9861V58.5214H88.7932V61.7468H87.9732V61.2822C87.8638 61.4325 87.7272 61.5555 87.5359 61.6512C87.3582 61.7468 87.1395 61.8015 86.8935 61.8015C86.6202 61.8015 86.3742 61.7332 86.1555 61.5965C85.9368 61.4598 85.7591 61.2548 85.6225 61.0088C85.4858 60.7491 85.4312 60.4622 85.4312 60.1342C85.4312 59.8062 85.4995 59.5191 85.6225 59.2731V59.2595ZM87.8502 59.6285C87.7682 59.4918 87.6725 59.3825 87.5359 59.3005C87.3992 59.2185 87.2625 59.1911 87.1121 59.1911C86.9618 59.1911 86.8251 59.2321 86.6885 59.3005C86.5655 59.3688 86.4562 59.4781 86.3742 59.6285C86.2922 59.7788 86.2512 59.9428 86.2512 60.1342C86.2512 60.3255 86.2922 60.5032 86.3742 60.6398C86.4562 60.7765 86.5518 60.8995 86.6885 60.9678C86.8251 61.0498 86.9618 61.0908 87.0985 61.0908C87.2352 61.0908 87.3855 61.0498 87.5222 60.9815C87.6588 60.8995 87.7545 60.8038 87.8365 60.6535C87.9185 60.5168 87.9595 60.3391 87.9595 60.1478C87.9595 59.9565 87.9185 59.7788 87.8365 59.6421L87.8502 59.6285Z" fill="black"/>
<path d="M96.8704 58.8485C97.1164 59.0945 97.2393 59.4362 97.2393 59.8599V61.7459H96.4194V59.9692C96.4194 59.7232 96.351 59.5182 96.228 59.3952C96.105 59.2585 95.9273 59.1902 95.7087 59.1902C95.49 59.1902 95.3124 59.2585 95.1757 59.3952C95.039 59.5319 94.9843 59.7232 94.9843 59.9692V61.7459H94.1643V59.9692C94.1643 59.7232 94.096 59.5182 93.973 59.3952C93.85 59.2585 93.6723 59.1902 93.4537 59.1902C93.235 59.1902 93.0573 59.2585 92.9206 59.3952C92.784 59.5319 92.7293 59.7232 92.7293 59.9692V61.7459H91.9093V58.5205H92.7293V58.9168C92.8387 58.7802 92.9753 58.6708 93.1393 58.6025C93.3033 58.5205 93.481 58.4795 93.686 58.4795C93.932 58.4795 94.1643 58.5342 94.3557 58.6435C94.547 58.7528 94.711 58.9032 94.8203 59.0945C94.9297 58.9032 95.08 58.7528 95.2713 58.6435C95.4763 58.5342 95.6813 58.4795 95.9273 58.4795C96.3237 58.4795 96.638 58.6025 96.884 58.8485H96.8704Z" fill="black"/>
</svg>
