<svg width="41" height="41" viewBox="0 0 41 41" fill="none" xmlns="http://www.w3.org/2000/svg">
<rect width="40.629" height="40.629" rx="20.3145" transform="matrix(-1 0 0 1 40.629 0)" fill="#F1F6F8"/>
<path fill-rule="evenodd" clip-rule="evenodd" d="M19.5467 15.7091C19.3675 15.5299 19.0771 15.5299 18.898 15.7091L14.6166 19.9904C14.5306 20.0764 14.4823 20.1931 14.4823 20.3147C14.4823 20.4364 14.5306 20.5531 14.6166 20.6391L18.898 24.9205C19.0771 25.0996 19.3675 25.0996 19.5467 24.9205C19.7258 24.7413 19.7258 24.4509 19.5467 24.2717L16.0484 20.7734H25.9502C26.2035 20.7734 26.4089 20.568 26.4089 20.3147C26.4089 20.0614 26.2035 19.856 25.9502 19.856H16.0484L19.5467 16.3578C19.7258 16.1786 19.7258 15.8882 19.5467 15.7091Z" fill="black"/>
</svg>
