<svg width="17" height="17" viewBox="0 0 17 17" fill="none" xmlns="http://www.w3.org/2000/svg">
<mask id="mask0_6700_1107" style="mask-type:luminance" maskUnits="userSpaceOnUse" x="0" y="0" width="17" height="17">
<path d="M16.6667 0H0V16.6667H16.6667V0Z" fill="white"/>
</mask>
<g mask="url(#mask0_6700_1107)">
<path d="M4.88206 0.0582819C3.99538 0.100116 3.38988 0.241617 2.86054 0.449616C2.31271 0.663126 1.84836 0.949626 1.38636 1.4133C0.924355 1.87697 0.639855 2.34164 0.427851 2.89031C0.222683 3.42082 0.0836807 4.02683 0.0445137 4.914C0.00534673 5.80118 -0.00332025 6.08635 0.00101375 8.34937C0.00534675 10.6124 0.0153467 10.8961 0.0583477 11.7851C0.100681 12.6716 0.241683 13.2769 0.449685 13.8064C0.663525 14.3543 0.949695 14.8184 1.41352 15.2806C1.87736 15.7428 2.3417 16.0266 2.8917 16.239C3.42171 16.4438 4.02788 16.5835 4.91489 16.6223C5.8019 16.6611 6.0874 16.6701 8.34976 16.6658C10.6121 16.6615 10.897 16.6515 11.7858 16.6093C12.6747 16.5671 13.2768 16.4251 13.8065 16.2181C14.3544 16.0038 14.8189 15.7181 15.2807 15.2541C15.7425 14.7901 16.0269 14.3251 16.2387 13.7761C16.444 13.2461 16.5835 12.6399 16.622 11.7536C16.6609 10.8641 16.67 10.5801 16.6657 8.31737C16.6614 6.05468 16.6512 5.77101 16.609 4.88234C16.5669 3.99366 16.4257 3.39015 16.2179 2.86031C16.0037 2.31248 15.7179 1.84864 15.2542 1.38613C14.7905 0.923626 14.3252 0.639456 13.7763 0.428116C13.246 0.22295 12.6402 0.0831149 11.7532 0.0447819C10.8661 0.00644793 10.5806 -0.0033851 8.31744 0.000947902C6.05424 0.0052809 5.77091 0.0149479 4.88206 0.0582819ZM4.97939 15.1231C4.16688 15.0878 3.72571 14.9528 3.43171 14.8398C3.04237 14.6898 2.76504 14.5084 2.47203 14.2183C2.17903 13.9281 1.99903 13.6498 1.84703 13.2613C1.73286 12.9673 1.59536 12.5266 1.55736 11.7141C1.51602 10.8359 1.50736 10.5722 1.50252 8.34737C1.49769 6.12251 1.50619 5.85918 1.54469 4.98067C1.57936 4.16883 1.71519 3.72716 1.82803 3.43332C1.97803 3.04348 2.1587 2.76665 2.44953 2.47381C2.74037 2.18097 3.01787 2.00064 3.40671 1.84864C3.70038 1.73397 4.14105 1.59763 4.95323 1.55897C5.83207 1.5173 6.0954 1.50897 8.31993 1.50413C10.5445 1.4993 10.8085 1.50763 11.6877 1.5463C12.4995 1.58163 12.9413 1.71614 13.2348 1.82964C13.6243 1.97964 13.9015 2.15981 14.1944 2.45114C14.4872 2.74248 14.6677 3.01898 14.8197 3.40865C14.9345 3.70149 15.0709 4.14199 15.1092 4.95467C15.151 5.83351 15.1605 6.09701 15.1645 8.32137C15.1685 10.5457 15.1607 10.8099 15.1222 11.6881C15.0867 12.5006 14.952 12.9419 14.8389 13.2363C14.6889 13.6254 14.508 13.9029 14.217 14.1956C13.926 14.4883 13.6488 14.6686 13.2598 14.8206C12.9665 14.9351 12.5253 15.0718 11.7138 15.1104C10.835 15.1518 10.5716 15.1604 8.34626 15.1653C6.1209 15.1701 5.85823 15.1611 4.97939 15.1231ZM11.773 3.87949C11.7733 4.07729 11.8323 4.27055 11.9425 4.43482C12.0526 4.59909 12.2091 4.72701 12.3919 4.80238C12.5748 4.87775 12.7759 4.8972 12.9699 4.85827C13.1638 4.81933 13.3418 4.72376 13.4814 4.58364C13.621 4.44352 13.7159 4.26514 13.7542 4.07108C13.7924 3.87701 13.7722 3.67596 13.6962 3.49337C13.6201 3.31077 13.4916 3.15483 13.3269 3.04526C13.1623 2.93569 12.9688 2.87742 12.771 2.87781C12.5058 2.87834 12.2517 2.98417 12.0646 3.17201C11.8774 3.35985 11.7725 3.61433 11.773 3.87949ZM4.05455 8.3417C4.05923 10.7051 5.97857 12.6166 8.34143 12.6121C10.7043 12.6076 12.6172 10.6884 12.6127 8.32504C12.6082 5.96168 10.6883 4.04966 8.3251 4.05433C5.96191 4.05899 4.05006 5.97868 4.05455 8.3417ZM5.55557 8.3387C5.55448 7.7893 5.71634 7.2519 6.02067 6.79448C6.325 6.33706 6.75813 5.98016 7.26531 5.76891C7.77248 5.55765 8.3309 5.50154 8.86996 5.60766C9.40902 5.71377 9.90447 5.97736 10.2938 6.36508C10.6831 6.7528 10.9486 7.24724 11.0569 7.78588C11.1651 8.32452 11.1112 8.88316 10.902 9.3912C10.6927 9.8992 10.3375 10.3337 9.88128 10.6399C9.42509 10.946 8.88834 11.11 8.33893 11.1111C7.97412 11.1118 7.61274 11.0407 7.27541 10.9018C6.9381 10.7629 6.63144 10.5589 6.37297 10.3014C6.1145 10.044 5.90929 9.7381 5.76903 9.4014C5.62878 9.06461 5.55624 8.70351 5.55557 8.3387Z" fill="white"/>
</g>
</svg>
