<svg width="19" height="21" viewBox="0 0 19 21" fill="none" xmlns="http://www.w3.org/2000/svg">
<path d="M16.433 2H2.23046C1.55013 2 1 2.53711 1 3.20117V17.4623C1 18.1263 1.55013 18.6667 2.23046 18.6667H16.433C17.1133 18.6667 17.6667 18.1263 17.6667 17.4655V3.20117C17.6667 2.53711 17.1133 2 16.433 2ZM5.94466 16.2025H3.4707V8.24674H5.94466V16.2025ZM4.70768 7.16276C3.91341 7.16276 3.27213 6.52148 3.27213 5.73046C3.27213 4.93945 3.91341 4.29817 4.70768 4.29817C5.49869 4.29817 6.13997 4.93945 6.13997 5.73046C6.13997 6.51823 5.49869 7.16276 4.70768 7.16276ZM15.2025 16.2025H12.7318V12.3353C12.7318 11.4141 12.7155 10.2259 11.446 10.2259C10.1602 10.2259 9.96487 11.2318 9.96487 12.2702V16.2025H7.49739V8.24674H9.86717V9.33398H9.89977C10.2285 8.70898 11.0358 8.04817 12.237 8.04817C14.7403 8.04817 15.2025 9.69531 15.2025 11.8373V16.2025Z" fill="white"/>
</svg>
