<svg width="44" height="44" viewBox="0 0 44 44" fill="none" xmlns="http://www.w3.org/2000/svg">
<rect width="44" height="44" rx="8" fill="#FFF7F7"/>
<path fill-rule="evenodd" clip-rule="evenodd" d="M32 22C32 27.5228 27.5228 32 22 32C20.4003 32 18.8884 31.6244 17.5475 30.9565C17.1912 30.7791 16.7839 30.72 16.3994 30.8229L14.1733 31.4185C13.207 31.677 12.323 30.793 12.5815 29.8267L13.1771 27.6006C13.28 27.2161 13.2209 26.8088 13.0435 26.4525C12.3756 25.1116 12 23.5997 12 22C12 16.4772 16.4772 12 22 12C27.5228 12 32 16.4772 32 22ZM22 17.25C22.4142 17.25 22.75 17.5858 22.75 18V26C22.75 26.4142 22.4142 26.75 22 26.75C21.5858 26.75 21.25 26.4142 21.25 26V18C21.25 17.5858 21.5858 17.25 22 17.25ZM18.75 20C18.75 19.5858 18.4142 19.25 18 19.25C17.5858 19.25 17.25 19.5858 17.25 20V24C17.25 24.4142 17.5858 24.75 18 24.75C18.4142 24.75 18.75 24.4142 18.75 24V20ZM26 19.25C26.4142 19.25 26.75 19.5858 26.75 20V24C26.75 24.4142 26.4142 24.75 26 24.75C25.5858 24.75 25.25 24.4142 25.25 24V20C25.25 19.5858 25.5858 19.25 26 19.25Z" fill="black" fill-opacity="0.52"/>
</svg>
