<svg width="44" height="44" viewBox="0 0 44 44" fill="none" xmlns="http://www.w3.org/2000/svg">
<rect width="44" height="44" rx="8" fill="#FFF7F7"/>
<path d="M20.0376 15.3162L20.6866 16.4791C21.2723 17.5286 21.0372 18.9053 20.1147 19.8278C20.1147 19.8278 18.9958 20.9467 21.0245 22.9755C23.0532 25.0042 24.1722 23.8853 24.1722 23.8853C25.0947 22.9628 26.4714 22.7277 27.5209 23.3134L28.6838 23.9624C30.2686 24.8468 30.4557 27.0692 29.0628 28.4622C28.2258 29.2992 27.2004 29.9505 26.0669 29.9934C24.1588 30.0658 20.9183 29.5829 17.6677 26.3323C14.4171 23.0817 13.9342 19.8412 14.0066 17.9331C14.0495 16.7996 14.7008 15.7742 15.5378 14.9372C16.9308 13.5443 19.1532 13.7314 20.0376 15.3162Z" fill="black" fill-opacity="0.52"/>
<path d="M23.2595 11.8798C23.3257 11.4709 23.7122 11.1936 24.1211 11.2598C24.1464 11.2646 24.2279 11.2798 24.2705 11.2893C24.3559 11.3083 24.4749 11.3376 24.6233 11.3808C24.9201 11.4673 25.3347 11.6097 25.8323 11.8378C26.8286 12.2946 28.1544 13.0936 29.5302 14.4694C30.906 15.8452 31.705 17.171 32.1617 18.1673C32.3899 18.6649 32.5323 19.0795 32.6187 19.3763C32.6619 19.5247 32.6912 19.6437 32.7102 19.729C32.7197 19.7717 32.7267 19.8059 32.7315 19.8313L32.7373 19.8624C32.8034 20.2713 32.5286 20.6739 32.1197 20.7401C31.712 20.8061 31.3279 20.53 31.2601 20.1231C31.258 20.1121 31.2522 20.0828 31.2461 20.0551C31.2337 19.9997 31.2124 19.9119 31.1786 19.7957C31.1109 19.5634 30.9934 19.2181 30.7982 18.7924C30.4084 17.9421 29.7074 16.7679 28.4695 15.53C27.2317 14.2922 26.0575 13.5912 25.2072 13.2013C24.7815 13.0062 24.4362 12.8886 24.2038 12.821C24.0877 12.7871 23.9417 12.7536 23.8863 12.7413C23.4793 12.6735 23.1935 12.2876 23.2595 11.8798Z" fill="black" fill-opacity="0.52"/>
<path fill-rule="evenodd" clip-rule="evenodd" d="M23.4857 15.3293C23.5995 14.931 24.0146 14.7004 24.4129 14.8142L24.2069 15.5353C24.4129 14.8142 24.4129 14.8142 24.4129 14.8142L24.4144 14.8146L24.4159 14.815L24.4192 14.816L24.427 14.8183L24.4468 14.8245C24.4618 14.8293 24.4807 14.8356 24.5031 14.8436C24.548 14.8595 24.6074 14.8822 24.6802 14.9134C24.8259 14.9758 25.0249 15.0722 25.2695 15.2169C25.7589 15.5066 26.4271 15.9878 27.2121 16.7728C27.9971 17.5577 28.4782 18.2259 28.7679 18.7154C28.9126 18.9599 29.009 19.159 29.0715 19.3047C29.1027 19.3775 29.1254 19.4368 29.1413 19.4817C29.1493 19.5042 29.1555 19.523 29.1604 19.5381L29.1665 19.5579L29.1688 19.5656L29.1698 19.569L29.1702 19.5705C29.1702 19.5705 29.1707 19.5719 28.4495 19.778L29.1707 19.5719C29.2845 19.9702 29.0538 20.3853 28.6556 20.4991C28.2607 20.6119 27.8492 20.3862 27.7313 19.9941L27.7276 19.9833C27.7223 19.9683 27.7113 19.9387 27.6928 19.8955C27.6558 19.8092 27.5887 19.668 27.4771 19.4794C27.2541 19.1026 26.8514 18.5334 26.1514 17.8334C25.4515 17.1335 24.8822 16.7308 24.5055 16.5078C24.3169 16.3962 24.1757 16.3291 24.0893 16.2921C24.0461 16.2736 24.0165 16.2625 24.0015 16.2572L23.9907 16.2535C23.5987 16.1356 23.3729 15.7242 23.4857 15.3293Z" fill="black" fill-opacity="0.52"/>
</svg>
