<svg width="104" height="59" viewBox="0 0 104 59" fill="none" xmlns="http://www.w3.org/2000/svg">
<path d="M14.4871 44.9704C14.4871 44.9704 6.1045 44.8325 2.63872 37.6429C0.936998 34.1131 -0.0201408 28.9715 2.57855 21.1406L7.94887 23.3555" stroke="black" stroke-width="1.94804" stroke-linecap="round" stroke-linejoin="round"/>
<path d="M21.3538 41.9589C21.3538 41.9589 35.2429 28.4655 19.0385 13.1935C18.8441 13.0103 18.5454 13.0026 18.3422 13.1755C16.656 14.6099 9.13506 20.7796 9.68852 29.4973C9.93181 33.331 11.195 39.015 16.1181 42.7108C16.2556 42.8139 22.7848 47.3972 29.0575 43.1459C29.1094 43.1108 29.1618 43.0764 29.2155 43.044C30.1272 42.4918 40.0931 36.0423 33.8014 21.4826C33.6873 21.2185 33.3858 21.0952 33.122 21.2034L28.648 22.9064" stroke="black" stroke-width="1.94804" stroke-linecap="round" stroke-linejoin="round"/>
<path d="M12.9434 36.7363C12.9434 36.7363 10.531 28.6502 21.324 24.2069C21.324 24.2069 21.7946 24.0221 21.697 24.4678C21.5994 24.9137 20.9749 25.5509 21.4907 27.3784C21.4907 27.3784 21.6675 28.1963 21.955 28.7931C21.955 28.7931 22.9792 30.7457 22.8981 32.2563C22.8981 32.2563 23.3329 36.3385 17.0548 40.1406C17.0548 40.1406 16.5537 40.5939 16.3548 39.6064C16.1559 38.619 15.7949 37.5101 15.7394 34.5701C15.7394 34.5701 15.0487 36.0567 15.7284 39.2067C15.7284 39.2067 16.1483 40.8536 16.3308 41.1077C16.3308 41.1077 16.5849 41.7653 17.5907 42.2517C17.5907 42.2517 20.5031 44.2965 23.8853 44.0478L22.3931 44.3131L19.6576 44.1307L16.4401 42.9878L13.5563 39.6097L12.9429 36.7363H12.9434Z" fill="black" stroke="black" stroke-width="0.0216449" stroke-miterlimit="10"/>
<path d="M56.6777 25.8256C56.6777 26.6311 56.4836 27.3862 56.0952 28.091C55.7213 28.7957 55.1244 29.3639 54.3045 29.7954C53.4991 30.2269 52.4779 30.4426 51.2409 30.4426H48.7167V36.2246H45.6962V21.1655H51.2409C52.406 21.1655 53.3984 21.3669 54.2182 21.7696C55.0381 22.1723 55.6494 22.7261 56.0521 23.4308C56.4692 24.1356 56.6777 24.9339 56.6777 25.8256ZM51.1115 28.0047C51.9457 28.0047 52.5642 27.8177 52.9669 27.4437C53.3696 27.0554 53.571 26.516 53.571 25.8256C53.571 24.3586 52.7512 23.625 51.1115 23.625H48.7167V28.0047H51.1115ZM63.0413 21.1655V36.2246H60.0208V21.1655H63.0413ZM76.458 33.3552H70.4603L69.4678 36.2246H66.2964L71.7116 21.1439H75.2283L80.6435 36.2246H77.4505L76.458 33.3552ZM75.6382 30.9388L73.4591 24.639L71.2801 30.9388H75.6382ZM92.8844 36.2246L89.6267 31.1546L86.6709 36.2246H83.2621L88.0086 28.6303L83.1974 21.1655H86.6709L89.9287 26.214L92.8629 21.1655H96.2717L91.5468 28.7382L96.358 36.2246H92.8844Z" fill="black"/>
<path d="M100.054 16.7923V17.2174H99.3543V19.418H98.8277V17.2174H98.128V16.7923H100.054ZM103.51 16.7923V19.418H102.983V17.7101L102.28 19.418H101.881L101.174 17.7101V19.418H100.647V16.7923H101.245L102.08 18.7446L102.916 16.7923H103.51Z" fill="black"/>
<path d="M48.1373 41.0399V41.3687H46.7911V42.4128H47.884V42.7416H46.7911V44.1367H46.3868V41.0399H48.1373ZM50.8471 42.826C50.8471 42.903 50.8427 42.9845 50.8338 43.0704H48.8878C48.9026 43.3103 48.984 43.4984 49.1321 43.6347C49.2832 43.7679 49.4653 43.8346 49.6786 43.8346C49.8534 43.8346 49.9985 43.7946 50.114 43.7146C50.2325 43.6317 50.3154 43.5221 50.3628 43.3859H50.7982C50.7331 43.6198 50.6028 43.8109 50.4073 43.959C50.2118 44.1041 49.9689 44.1767 49.6786 44.1767C49.4476 44.1767 49.2402 44.1249 49.0566 44.0212C48.8759 43.9175 48.7337 43.7709 48.6301 43.5813C48.5264 43.3888 48.4746 43.1667 48.4746 42.9149C48.4746 42.6631 48.5249 42.4425 48.6256 42.2529C48.7263 42.0633 48.867 41.9182 49.0477 41.8175C49.2313 41.7138 49.4416 41.662 49.6786 41.662C49.9096 41.662 50.114 41.7123 50.2917 41.813C50.4695 41.9137 50.6057 42.0529 50.7005 42.2307C50.7982 42.4054 50.8471 42.6039 50.8471 42.826ZM50.4295 42.7416C50.4295 42.5876 50.3954 42.4558 50.3273 42.3462C50.2592 42.2336 50.1659 42.1492 50.0474 42.0929C49.9319 42.0337 49.803 42.0041 49.6608 42.0041C49.4565 42.0041 49.2817 42.0692 49.1366 42.1996C48.9944 42.3299 48.9129 42.5106 48.8922 42.7416H50.4295ZM53.6023 42.826C53.6023 42.903 53.5979 42.9845 53.589 43.0704H51.6429C51.6577 43.3103 51.7392 43.4984 51.8873 43.6347C52.0384 43.7679 52.2205 43.8346 52.4338 43.8346C52.6086 43.8346 52.7537 43.7946 52.8692 43.7146C52.9877 43.6317 53.0706 43.5221 53.118 43.3859H53.5534C53.4883 43.6198 53.3579 43.8109 53.1624 43.959C52.967 44.1041 52.7241 44.1767 52.4338 44.1767C52.2028 44.1767 51.9954 44.1249 51.8118 44.0212C51.6311 43.9175 51.4889 43.7709 51.3852 43.5813C51.2816 43.3888 51.2297 43.1667 51.2297 42.9149C51.2297 42.6631 51.2801 42.4425 51.3808 42.2529C51.4815 42.0633 51.6222 41.9182 51.8029 41.8175C51.9865 41.7138 52.1968 41.662 52.4338 41.662C52.6648 41.662 52.8692 41.7123 53.0469 41.813C53.2247 41.9137 53.3609 42.0529 53.4557 42.2307C53.5534 42.4054 53.6023 42.6039 53.6023 42.826ZM53.1847 42.7416C53.1847 42.5876 53.1506 42.4558 53.0825 42.3462C53.0143 42.2336 52.921 42.1492 52.8026 42.0929C52.687 42.0337 52.5582 42.0041 52.416 42.0041C52.2116 42.0041 52.0369 42.0692 51.8917 42.1996C51.7496 42.3299 51.6681 42.5106 51.6474 42.7416H53.1847ZM54.5403 40.8489V44.1367H54.136V40.8489H54.5403ZM56.2628 42.9104C56.2628 42.6616 56.3132 42.4439 56.4139 42.2573C56.5146 42.0678 56.6523 41.9211 56.8271 41.8175C57.0048 41.7138 57.2033 41.662 57.4225 41.662C57.612 41.662 57.7883 41.7064 57.9512 41.7953C58.1141 41.8812 58.2385 41.9952 58.3244 42.1374V40.8489H58.7331V44.1367H58.3244V43.6791C58.2444 43.8242 58.1259 43.9442 57.969 44.039C57.812 44.1308 57.6283 44.1767 57.418 44.1767C57.2018 44.1767 57.0048 44.1234 56.8271 44.0168C56.6523 43.9101 56.5146 43.7605 56.4139 43.568C56.3132 43.3755 56.2628 43.1563 56.2628 42.9104ZM58.3244 42.9149C58.3244 42.7312 58.2874 42.5713 58.2133 42.435C58.1393 42.2988 58.0386 42.1951 57.9112 42.124C57.7868 42.05 57.6491 42.013 57.498 42.013C57.3469 42.013 57.2092 42.0485 57.0848 42.1196C56.9604 42.1907 56.8612 42.2944 56.7871 42.4306C56.7131 42.5669 56.676 42.7268 56.676 42.9104C56.676 43.0971 56.7131 43.26 56.7871 43.3992C56.8612 43.5354 56.9604 43.6406 57.0848 43.7146C57.2092 43.7857 57.3469 43.8213 57.498 43.8213C57.6491 43.8213 57.7868 43.7857 57.9112 43.7146C58.0386 43.6406 58.1393 43.5354 58.2133 43.3992C58.2874 43.26 58.3244 43.0985 58.3244 42.9149ZM59.6252 41.3065C59.5482 41.3065 59.483 41.2799 59.4297 41.2265C59.3764 41.1732 59.3498 41.1081 59.3498 41.0311C59.3498 40.954 59.3764 40.8889 59.4297 40.8356C59.483 40.7822 59.5482 40.7556 59.6252 40.7556C59.6993 40.7556 59.7615 40.7822 59.8118 40.8356C59.8651 40.8889 59.8918 40.954 59.8918 41.0311C59.8918 41.1081 59.8651 41.1732 59.8118 41.2265C59.7615 41.2799 59.6993 41.3065 59.6252 41.3065ZM59.8207 41.7019V44.1367H59.4164V41.7019H59.8207ZM61.5006 42.0352H60.9896V44.1367H60.5853V42.0352H60.2699V41.7019H60.5853V41.5287C60.5853 41.2562 60.6549 41.0577 60.7941 40.9333C60.9363 40.8059 61.1629 40.7423 61.4739 40.7423V41.0799C61.2962 41.0799 61.1703 41.1155 61.0963 41.1866C61.0252 41.2547 60.9896 41.3687 60.9896 41.5287V41.7019H61.5006V42.0352ZM62.9628 42.0352H62.4518V44.1367H62.0475V42.0352H61.7321V41.7019H62.0475V41.5287C62.0475 41.2562 62.1171 41.0577 62.2564 40.9333C62.3985 40.8059 62.6251 40.7423 62.9361 40.7423V41.0799C62.7584 41.0799 62.6325 41.1155 62.5585 41.1866C62.4874 41.2547 62.4518 41.3687 62.4518 41.5287V41.7019H62.9628V42.0352ZM65.6557 42.826C65.6557 42.903 65.6513 42.9845 65.6424 43.0704H63.6963C63.7111 43.3103 63.7926 43.4984 63.9407 43.6347C64.0918 43.7679 64.2739 43.8346 64.4872 43.8346C64.662 43.8346 64.8071 43.7946 64.9226 43.7146C65.0411 43.6317 65.124 43.5221 65.1714 43.3859H65.6068C65.5417 43.6198 65.4113 43.8109 65.2158 43.959C65.0204 44.1041 64.7775 44.1767 64.4872 44.1767C64.2562 44.1767 64.0488 44.1249 63.8652 44.0212C63.6845 43.9175 63.5423 43.7709 63.4386 43.5813C63.335 43.3888 63.2831 43.1667 63.2831 42.9149C63.2831 42.6631 63.3335 42.4425 63.4342 42.2529C63.5349 42.0633 63.6756 41.9182 63.8563 41.8175C64.0399 41.7138 64.2502 41.662 64.4872 41.662C64.7182 41.662 64.9226 41.7123 65.1003 41.813C65.278 41.9137 65.4143 42.0529 65.5091 42.2307C65.6068 42.4054 65.6557 42.6039 65.6557 42.826ZM65.2381 42.7416C65.2381 42.5876 65.204 42.4558 65.1359 42.3462C65.0677 42.2336 64.9744 42.1492 64.856 42.0929C64.7404 42.0337 64.6116 42.0041 64.4694 42.0041C64.265 42.0041 64.0903 42.0692 63.9451 42.1996C63.803 42.3299 63.7215 42.5106 63.7008 42.7416H65.2381ZM66.5937 42.0974C66.6648 41.9582 66.7655 41.85 66.8958 41.773C67.0291 41.696 67.1905 41.6575 67.3801 41.6575V42.0752H67.2735C66.8203 42.0752 66.5937 42.321 66.5937 42.8127V44.1367H66.1894V41.7019H66.5937V42.0974ZM70.0683 42.826C70.0683 42.903 70.0639 42.9845 70.055 43.0704H68.109C68.1238 43.3103 68.2052 43.4984 68.3533 43.6347C68.5044 43.7679 68.6866 43.8346 68.8998 43.8346C69.0746 43.8346 69.2197 43.7946 69.3352 43.7146C69.4537 43.6317 69.5367 43.5221 69.5841 43.3859H70.0195C69.9543 43.6198 69.824 43.8109 69.6285 43.959C69.433 44.1041 69.1901 44.1767 68.8998 44.1767C68.6688 44.1767 68.4615 44.1249 68.2778 44.0212C68.0971 43.9175 67.955 43.7709 67.8513 43.5813C67.7476 43.3888 67.6958 43.1667 67.6958 42.9149C67.6958 42.6631 67.7461 42.4425 67.8468 42.2529C67.9475 42.0633 68.0882 41.9182 68.2689 41.8175C68.4526 41.7138 68.6629 41.662 68.8998 41.662C69.1309 41.662 69.3352 41.7123 69.513 41.813C69.6907 41.9137 69.8269 42.0529 69.9217 42.2307C70.0195 42.4054 70.0683 42.6039 70.0683 42.826ZM69.6507 42.7416C69.6507 42.5876 69.6166 42.4558 69.5485 42.3462C69.4804 42.2336 69.3871 42.1492 69.2686 42.0929C69.1531 42.0337 69.0242 42.0041 68.8821 42.0041C68.6777 42.0041 68.5029 42.0692 68.3578 42.1996C68.2156 42.3299 68.1342 42.5106 68.1134 42.7416H69.6507ZM71.7883 41.6575C72.0845 41.6575 72.3244 41.7479 72.5081 41.9285C72.6917 42.1063 72.7835 42.364 72.7835 42.7016V44.1367H72.3837V42.7594C72.3837 42.5165 72.3229 42.3314 72.2015 42.204C72.0801 42.0737 71.9142 42.0085 71.7039 42.0085C71.4906 42.0085 71.3203 42.0752 71.1929 42.2085C71.0685 42.3417 71.0063 42.5358 71.0063 42.7905V44.1367H70.602V41.7019H71.0063V42.0485C71.0863 41.9241 71.1944 41.8278 71.3307 41.7597C71.4699 41.6916 71.6224 41.6575 71.7883 41.6575ZM73.9372 42.0352V43.4703C73.9372 43.5887 73.9623 43.6732 74.0127 43.7235C74.063 43.7709 74.1504 43.7946 74.2748 43.7946H74.5725V44.1367H74.2082C73.9831 44.1367 73.8142 44.0849 73.7017 43.9812C73.5891 43.8775 73.5328 43.7072 73.5328 43.4703V42.0352H73.2174V41.7019H73.5328V41.0888H73.9372V41.7019H74.5725V42.0352H73.9372ZM75.1912 44.1634C75.1142 44.1634 75.0491 44.1367 74.9957 44.0834C74.9424 44.0301 74.9158 43.9649 74.9158 43.8879C74.9158 43.8109 74.9424 43.7457 74.9957 43.6924C75.0491 43.6391 75.1142 43.6124 75.1912 43.6124C75.2653 43.6124 75.3275 43.6391 75.3778 43.6924C75.4312 43.7457 75.4578 43.8109 75.4578 43.8879C75.4578 43.9649 75.4312 44.0301 75.3778 44.0834C75.3275 44.1367 75.2653 44.1634 75.1912 44.1634ZM78.9303 41.0399V41.3687H77.5841V42.4128H78.6771V42.7416H77.5841V44.1367H77.1798V41.0399H78.9303ZM81.6401 42.826C81.6401 42.903 81.6357 42.9845 81.6268 43.0704H79.6808C79.6956 43.3103 79.777 43.4984 79.9251 43.6347C80.0762 43.7679 80.2583 43.8346 80.4716 43.8346C80.6464 43.8346 80.7915 43.7946 80.907 43.7146C81.0255 43.6317 81.1084 43.5221 81.1558 43.3859H81.5913C81.5261 43.6198 81.3958 43.8109 81.2003 43.959C81.0048 44.1041 80.7619 44.1767 80.4716 44.1767C80.2406 44.1767 80.0332 44.1249 79.8496 44.0212C79.6689 43.9175 79.5267 43.7709 79.4231 43.5813C79.3194 43.3888 79.2676 43.1667 79.2676 42.9149C79.2676 42.6631 79.3179 42.4425 79.4186 42.2529C79.5193 42.0633 79.66 41.9182 79.8407 41.8175C80.0243 41.7138 80.2347 41.662 80.4716 41.662C80.7026 41.662 80.907 41.7123 81.0847 41.813C81.2625 41.9137 81.3987 42.0529 81.4935 42.2307C81.5913 42.4054 81.6401 42.6039 81.6401 42.826ZM81.2225 42.7416C81.2225 42.5876 81.1884 42.4558 81.1203 42.3462C81.0522 42.2336 80.9589 42.1492 80.8404 42.0929C80.7249 42.0337 80.596 42.0041 80.4538 42.0041C80.2495 42.0041 80.0747 42.0692 79.9296 42.1996C79.7874 42.3299 79.7059 42.5106 79.6852 42.7416H81.2225ZM84.3953 42.826C84.3953 42.903 84.3909 42.9845 84.382 43.0704H82.4359C82.4508 43.3103 82.5322 43.4984 82.6803 43.6347C82.8314 43.7679 83.0135 43.8346 83.2268 43.8346C83.4016 43.8346 83.5467 43.7946 83.6622 43.7146C83.7807 43.6317 83.8636 43.5221 83.911 43.3859H84.3464C84.2813 43.6198 84.1509 43.8109 83.9555 43.959C83.76 44.1041 83.5171 44.1767 83.2268 44.1767C82.9958 44.1767 82.7884 44.1249 82.6048 44.0212C82.4241 43.9175 82.2819 43.7709 82.1783 43.5813C82.0746 43.3888 82.0227 43.1667 82.0227 42.9149C82.0227 42.6631 82.0731 42.4425 82.1738 42.2529C82.2745 42.0633 82.4152 41.9182 82.5959 41.8175C82.7795 41.7138 82.9898 41.662 83.2268 41.662C83.4578 41.662 83.6622 41.7123 83.8399 41.813C84.0177 41.9137 84.1539 42.0529 84.2487 42.2307C84.3464 42.4054 84.3953 42.6039 84.3953 42.826ZM83.9777 42.7416C83.9777 42.5876 83.9436 42.4558 83.8755 42.3462C83.8074 42.2336 83.7141 42.1492 83.5956 42.0929C83.4801 42.0337 83.3512 42.0041 83.209 42.0041C83.0047 42.0041 82.8299 42.0692 82.6848 42.1996C82.5426 42.3299 82.4611 42.5106 82.4404 42.7416H83.9777ZM85.3333 40.8489V44.1367H84.929V40.8489H85.3333ZM89.304 41.7019L87.8378 45.283H87.4202L87.9 44.1101L86.9181 41.7019H87.3669L88.131 43.6746L88.8864 41.7019H89.304ZM90.7723 44.1767C90.5442 44.1767 90.3369 44.1249 90.1503 44.0212C89.9666 43.9175 89.8215 43.7709 89.7149 43.5813C89.6112 43.3888 89.5594 43.1667 89.5594 42.9149C89.5594 42.6661 89.6127 42.4469 89.7193 42.2573C89.8289 42.0648 89.977 41.9182 90.1636 41.8175C90.3502 41.7138 90.5591 41.662 90.7901 41.662C91.0211 41.662 91.2299 41.7138 91.4166 41.8175C91.6032 41.9182 91.7498 42.0633 91.8564 42.2529C91.966 42.4425 92.0208 42.6631 92.0208 42.9149C92.0208 43.1667 91.9645 43.3888 91.852 43.5813C91.7424 43.7709 91.5928 43.9175 91.4032 44.0212C91.2137 44.1249 91.0034 44.1767 90.7723 44.1767ZM90.7723 43.8213C90.9175 43.8213 91.0537 43.7872 91.1811 43.7191C91.3084 43.6509 91.4106 43.5488 91.4876 43.4125C91.5676 43.2763 91.6076 43.1104 91.6076 42.9149C91.6076 42.7194 91.5691 42.5535 91.4921 42.4173C91.4151 42.281 91.3144 42.1803 91.19 42.1151C91.0656 42.047 90.9308 42.013 90.7856 42.013C90.6375 42.013 90.5013 42.047 90.3769 42.1151C90.2554 42.1803 90.1577 42.281 90.0836 42.4173C90.0096 42.5535 89.9726 42.7194 89.9726 42.9149C89.9726 43.1133 90.0081 43.2807 90.0792 43.417C90.1533 43.5532 90.251 43.6554 90.3724 43.7235C90.4939 43.7887 90.6272 43.8213 90.7723 43.8213ZM94.7117 41.7019V44.1367H94.3074V43.7768C94.2304 43.9012 94.1223 43.999 93.983 44.0701C93.8468 44.1382 93.6957 44.1723 93.5299 44.1723C93.3403 44.1723 93.17 44.1338 93.0189 44.0567C92.8679 43.9768 92.7479 43.8583 92.659 43.7013C92.5731 43.5443 92.5302 43.3533 92.5302 43.1282V41.7019H92.9301V43.0748C92.9301 43.3148 92.9908 43.4999 93.1122 43.6302C93.2337 43.7576 93.3995 43.8213 93.6098 43.8213C93.8261 43.8213 93.9964 43.7546 94.1208 43.6213C94.2452 43.488 94.3074 43.294 94.3074 43.0393V41.7019H94.7117ZM95.5232 44.1634C95.4462 44.1634 95.381 44.1367 95.3277 44.0834C95.2744 44.0301 95.2477 43.9649 95.2477 43.8879C95.2477 43.8109 95.2744 43.7457 95.3277 43.6924C95.381 43.6391 95.4462 43.6124 95.5232 43.6124C95.5973 43.6124 95.6595 43.6391 95.7098 43.6924C95.7631 43.7457 95.7898 43.8109 95.7898 43.8879C95.7898 43.9649 95.7631 44.0301 95.7098 44.0834C95.6595 44.1367 95.5973 44.1634 95.5232 44.1634Z" fill="black"/>
</svg>
