<svg width="10" height="9" viewBox="0 0 10 9" fill="none" xmlns="http://www.w3.org/2000/svg">
<path fill-rule="evenodd" clip-rule="evenodd" d="M5.14498 0.105862C4.83473 -0.0352871 4.47481 -0.0352875 4.16456 0.105861C3.94978 0.203574 3.79742 0.388536 3.66242 0.597584C3.52669 0.80777 3.37777 1.09346 3.19233 1.44924L3.19232 1.44925L3.18506 1.46319L3.0356 1.74993C2.90843 1.99388 2.87145 2.05782 2.82503 2.10443C2.77714 2.1525 2.71972 2.19092 2.65613 2.2174C2.59448 2.24307 2.51916 2.25425 2.23655 2.28437L2.10087 2.29884L2.08459 2.30057H2.08458C1.63907 2.34805 1.28318 2.38598 1.01375 2.43855C0.748015 2.49039 0.500363 2.56714 0.327008 2.7368C0.078978 2.97953 -0.0377902 3.31882 0.0108313 3.6555C0.0448137 3.8908 0.196152 4.09391 0.377477 4.28733C0.561332 4.48342 0.823735 4.71717 1.15222 5.00975L1.16422 5.02044L1.30746 5.14801C1.55628 5.36964 1.62008 5.43233 1.65582 5.49909C1.69273 5.56804 1.71238 5.64426 1.71323 5.72175C1.71405 5.79669 1.68756 5.8822 1.5736 6.19373L1.56822 6.20846L1.56821 6.2085C1.40005 6.66819 1.26688 7.03227 1.19127 7.31551C1.11781 7.59064 1.07666 7.86083 1.17242 8.09479C1.30717 8.42404 1.5991 8.67076 1.95656 8.75755C2.20986 8.81908 2.4817 8.74742 2.75456 8.64419C3.03468 8.5382 3.38937 8.36809 3.83659 8.15361L3.85123 8.14658L4.19896 7.97979C4.43342 7.86734 4.49744 7.83969 4.55888 7.82859C4.62224 7.81722 4.6873 7.81722 4.75066 7.82859C4.8121 7.83969 4.87613 7.86734 5.11058 7.97979L5.45831 8.14658L5.473 8.15361C5.9202 8.36809 6.27488 8.5382 6.55497 8.64419C6.82782 8.74742 7.09968 8.81908 7.35298 8.75755C7.71044 8.67076 8.00239 8.42404 8.13713 8.09479C8.2329 7.86083 8.19171 7.59064 8.11829 7.31551C8.04266 7.03227 7.9095 6.66819 7.74131 6.20846V6.20842L7.73595 6.19373C7.622 5.8822 7.5955 5.79669 7.59629 5.72175C7.59717 5.64426 7.6168 5.56804 7.65375 5.49909C7.68948 5.43233 7.75325 5.36964 8.0021 5.14801L8.14533 5.02044L8.15735 5.00971V5.00971C8.48582 4.71713 8.74823 4.48342 8.93206 4.28733C9.1134 4.09391 9.26474 3.8908 9.29873 3.6555C9.34735 3.31882 9.23058 2.97953 8.98252 2.7368C8.80918 2.56714 8.56154 2.49039 8.2958 2.43855C8.02635 2.38598 7.67047 2.34805 7.22498 2.30057L7.20867 2.29884L7.07301 2.28437C6.79038 2.25425 6.71505 2.24307 6.65344 2.2174C6.58983 2.19092 6.53242 2.1525 6.48454 2.10443C6.43812 2.05782 6.40113 1.99388 6.27396 1.74992L6.12449 1.46319L6.11721 1.44925C5.93176 1.09346 5.78288 0.80777 5.64714 0.597584C5.51215 0.388536 5.35981 0.203578 5.14498 0.105862Z" fill="#FFC250"/>
</svg>
